<svg width="67" height="67" viewBox="0 0 67 67" fill="none" xmlns="http://www.w3.org/2000/svg">
<path d="M33.5 66C51.4493 66 66 51.4493 66 33.5C66 15.5507 51.4493 1 33.5 1C15.5507 1 1 15.5507 1 33.5C1 51.4493 15.5507 66 33.5 66Z" fill="#D2D4D5" stroke="#D2D4D5"/>
<mask id="mask0_1053_2000" style="mask-type:luminance" maskUnits="userSpaceOnUse" x="1" y="1" width="65" height="65">
<path d="M33.5 66C51.4493 66 66 51.4493 66 33.5C66 15.5507 51.4493 1 33.5 1C15.5507 1 1 15.5507 1 33.5C1 51.4493 15.5507 66 33.5 66Z" fill="white"/>
</mask>
<g mask="url(#mask0_1053_2000)">
<path d="M7.22457 60.6256C8.81557 57.0466 16.5846 54.6786 21.7466 52.4546C26.9086 50.2306 26.2026 48.8836 26.3886 47.0386C26.4136 46.7856 26.4306 46.5166 26.4406 46.2386C24.584 44.5922 23.1568 42.518 22.2826 40.1956C22.2826 40.1956 22.2336 40.0726 22.2196 40.0356C22.0196 39.5106 21.8466 38.9626 21.6956 38.4036C21.1271 38.2057 20.6255 37.8522 20.2479 37.3834C19.8703 36.9146 19.6318 36.3492 19.5596 35.7516C19.0442 34.8597 18.8035 33.8357 18.8676 32.8076C19.0306 31.1146 19.7306 30.3326 20.5166 30.0076C20.5166 29.9076 20.5166 29.8076 20.5166 29.7146C20.5134 27.2701 20.7175 24.8297 21.1266 22.4196C21.2151 21.8498 21.3441 21.2871 21.5126 20.7356C22.2979 18.2056 23.8693 15.9917 25.9986 14.4156C28.3778 12.794 31.1903 11.9268 34.0696 11.9268C36.9488 11.9268 39.7613 12.794 42.1406 14.4156C44.2698 15.9917 45.8412 18.2056 46.6266 20.7356C46.7951 21.2871 46.9241 21.8498 47.0126 22.4196C47.4217 24.8297 47.6258 27.2701 47.6226 29.7146C47.6226 29.8026 47.6226 29.8916 47.6226 29.9836C48.4326 30.2956 49.1636 31.0746 49.3306 32.8096C49.3946 33.8376 49.1538 34.8617 48.6386 35.7536C48.3706 36.9356 47.6616 38.2156 46.4386 38.4166C46.2866 38.9776 46.1086 39.5296 45.9086 40.0596C45.8956 40.0946 45.8816 40.1276 45.8686 40.1596L45.8506 40.2056C44.9608 42.5672 43.4975 44.6704 41.5926 46.3256C41.6036 46.5706 41.6186 46.8096 41.6416 47.0366C41.8276 48.8806 41.2846 50.2286 46.4416 52.4526C51.5986 54.6766 59.3716 57.0446 60.9636 60.6236C62.5556 64.2026 61.9196 66.3076 61.9196 66.3076H6.27157C6.27157 66.3076 5.63157 64.2016 7.22457 60.6256Z" fill="white"/>
</g>
</svg>
