<svg id="Page_1" data-name="Page 1" xmlns="http://www.w3.org/2000/svg" xmlns:xlink="http://www.w3.org/1999/xlink" viewBox="0 0 113.39 113.39"><defs><style>.cls-1{fill:none;clip-rule:evenodd;}.cls-2{fill:#e5e5e5;fill-rule:evenodd;}.cls-3{clip-path:url(#clip-path);}.cls-4{fill:#ec5564;}.cls-5{fill:#424953;}.cls-6{fill:#646c77;}.cls-7{fill:#feeea5;}.cls-8{fill:#fd3426;}.cls-9{fill:#fee051;}.cls-10{fill:#c81019;}.cls-11{fill:#fcbf29;}.cls-12{fill:#fea832;}.cls-13{fill:#fe8821;}</style><clipPath id="clip-path"><path class="cls-1" d="M56.69,0A56.7,56.7,0,1,1,0,56.69,56.7,56.7,0,0,1,56.69,0Z"/></clipPath></defs><title>flag_Canada 1st Nations</title><g id="Layer_1" data-name="Layer 1"><path class="cls-2" d="M56.69,0A56.7,56.7,0,1,1,0,56.69,56.7,56.7,0,0,1,56.69,0Z"/><g class="cls-3"><path class="cls-4" d="M74.76,64.08C74.71,61.86,84.9,51.22,84.9,51.22s-3.5.47-4.85-1.5,4.84-12,4.84-12S73.65,41,71,36c0,0-8.9,11.61-9.33,11.3s0-19.68,0-19.68c-5,11-9.95-6.82-9.95-6.82-.32,1.17-4.9,17.83-9.94,6.82,0,0,.4,19.37,0,19.68S32.4,36,32.4,36c-2.62,5-13.87,1.7-13.87,1.7s6.2,10.06,4.85,12-4.85,1.5-4.85,1.5S28.72,61.86,28.67,64.08s-6.86,7.44-6.86,7.44,8.9,2.17,10,10.13l8.55-3.09,1.38,3.06s9.31-6,10-6,9.95,6,9.95,6l1.39-3.06,8.57,3.09c1.1-8,9.93-10.22,9.93-10.22S74.81,66.3,74.76,64.08Z"/><path class="cls-5" d="M62.23,57.2h0L51.71,66.12,41.19,57.2h0a1.43,1.43,0,0,0-1.85,2.18l.06,0,11.92,10.1.4-.47.39.47L64,59.43l.06,0a1.43,1.43,0,0,0-1.85-2.18Z"/><path class="cls-6" d="M51.71,49.72a1.43,1.43,0,0,0-1.43,1.43v.09h0V91.17h0a1.43,1.43,0,1,0,2.86,0h0V51.24h0a.28.28,0,0,0,0-.09A1.43,1.43,0,0,0,51.71,49.72Z"/><path class="cls-7" d="M90.22,78a9.37,9.37,0,0,1-6.9,2.72,9.77,9.77,0,0,1-8.63-5.31c-2.13-3.69-3.16-9.35-3.06-16.82A98.11,98.11,0,0,1,73.18,43a1.52,1.52,0,0,1,2.59-.79l8,8.19,8.15-7.93a1.55,1.55,0,0,1,1.55-.35,1.53,1.53,0,0,1,1,1.22,97.54,97.54,0,0,1,1.12,15.58c-.1,7.47-1.28,13.1-3.5,16.73A11.79,11.79,0,0,1,90.22,78Z"/><path class="cls-8" d="M92.59,37.34l-7.7,7.5a1.53,1.53,0,0,1-2.15,0l-7.52-7.73a1.51,1.51,0,0,1-.38-1.46,40.19,40.19,0,0,1,3.67-9.42c1.7-2.87,3.58-4.32,5.6-4.29s3.86,1.52,5.48,4.45A40.39,40.39,0,0,1,93,35.89,1.53,1.53,0,0,1,92.59,37.34Z"/><path class="cls-9" d="M93.45,42.13a1.55,1.55,0,0,0-1.55.35l-8.15,7.93-.1-.11-.41,30.44h.08A9.37,9.37,0,0,0,90.22,78a11.79,11.79,0,0,0,1.87-2.36c2.22-3.63,3.4-9.26,3.5-16.73a97.54,97.54,0,0,0-1.12-15.58A1.53,1.53,0,0,0,93.45,42.13Z"/><path class="cls-10" d="M89.59,26.36c-1.62-2.93-3.46-4.42-5.48-4.45H84l-.32,23.35a1.56,1.56,0,0,0,1.18-.42l7.7-7.5A1.53,1.53,0,0,0,93,35.89,40.39,40.39,0,0,0,89.59,26.36Z"/><path class="cls-11" d="M94,44.66l-9.23,9a1.54,1.54,0,0,1-2.16,0l0,0a1.55,1.55,0,0,1-.43-1.08l.12-8.81A1.52,1.52,0,0,1,83,42.48l7.52-7.32a1.52,1.52,0,0,1,2.54.73c.56,2.31,1,4.82,1.46,7.46A1.53,1.53,0,0,1,94,44.66Z"/><path class="cls-9" d="M84.76,53.63a1.71,1.71,0,0,1-.5.32,1.53,1.53,0,0,1-1.66-.35l-9-9.26A1.55,1.55,0,0,1,73.18,43c.47-2.61,1-5.1,1.66-7.39a1.53,1.53,0,0,1,1.09-1.07A1.51,1.51,0,0,1,77.4,35l7.5,7.71a1.51,1.51,0,0,1,.43,1.08l-.11,8.81A1.57,1.57,0,0,1,84.76,53.63Z"/><path class="cls-12" d="M84.25,91.22a1.5,1.5,0,0,1-1.08.43,1.52,1.52,0,0,1-1.5-1.54l.63-47a1.53,1.53,0,0,1,3,0l-.64,47A1.49,1.49,0,0,1,84.25,91.22Z"/><path class="cls-13" d="M83.85,41.6h-.09l-.67,50.05h.08a1.52,1.52,0,0,0,1.54-1.5l.64-47A1.52,1.52,0,0,0,83.85,41.6Z"/></g></g></svg>