<svg id="Page_1" data-name="Page 1" xmlns="http://www.w3.org/2000/svg" xmlns:xlink="http://www.w3.org/1999/xlink" viewBox="0 0 113.39 113.39"><defs><clipPath id="clip-path"><path d="M56.69,0A56.7,56.7,0,1,1,0,56.69,56.7,56.7,0,0,1,56.69,0Z" style="fill:#ccc;clip-rule:evenodd"/></clipPath><linearGradient id="New_Gradient_124" x1="-207.17" y1="358.99" x2="-203.44" y2="353.24" gradientTransform="translate(255.12 -323.5)" gradientUnits="userSpaceOnUse"><stop offset="0.14" stop-color="#fcd526"/><stop offset="0.45" stop-color="#fce950"/><stop offset="0.65" stop-color="#fce84e"/><stop offset="0.86" stop-color="#fcd526"/></linearGradient></defs><title>IsleOfMan</title><g id="Layer_1" data-name="Layer 1"><path d="M56.69,0A56.7,56.7,0,1,1,0,56.69,56.7,56.7,0,0,1,56.69,0Z" style="fill:#ccc;fill-rule:evenodd"/><g style="clip-path:url(#clip-path)"><polygon points="-28.35 0 141.73 0 141.73 113.39 -28.35 113.39 -28.35 0 -28.35 0" style="fill:#ff1612;fill-rule:evenodd"/><polygon points="27.14 43.02 28 43.66 30.73 42.83 29.3 44.69 31.02 46.55 28.03 46.32 26.33 48.04 25.91 45.72 23.47 45.04 25.69 44.13 25.87 43.25 27.14 43.02 27.14 43.02" style="fill:#fce94f;fill-rule:evenodd"/><path d="M27.24,42.88l.79.59,2.65-.8.53-.16-.34.43-1.35,1.74,1.62,1.75.31.33-.45,0-2.9-.23-1.65,1.66-.23.24-.06-.33-.41-2.21-2.33-.66-.49-.13.47-.19L25.53,44l.17-.78,0-.12.12,0,1.27-.23h.07l.06,0Zm.66.92-.8-.59L26,43.4l-.16.77,0,.09-.09,0L24,45l1.95.55.11,0,0,.1.36,2,1.47-1.49.05,0H28l2.54.2-1.41-1.53-.1-.11.09-.11,1.1-1.43-2.21.67-.08,0-.07-.05Z"/><path d="M31,36.06c1.58-.77,5.4-2.94,7-3.68a33.12,33.12,0,0,1,5.89-2,4.47,4.47,0,0,0,2.45-1c.69-.55,1-1.55,2.7-1.89a6.37,6.37,0,0,1,3.93.53A5.16,5.16,0,0,1,55,30.7a11.68,11.68,0,0,0,1.32,3.68,28,28,0,0,1,2.47,4.67c.7,1.7,1.47,3.85,1.88,5.23s.74,3.07.74,3.07l-5.3,4.44-6.72-2.66s-.58-5.39-.72-7.5-.17-4.92-.16-5.18-.77-.33-.89-.21a17.35,17.35,0,0,1-2.82,2.2,46.63,46.63,0,0,1-6.7,1.7c-2.19.34-6.53.21-7,.35a19.52,19.52,0,0,0-2.49,1A13.94,13.94,0,0,0,27,43a1.8,1.8,0,0,1-1.65.18,2.73,2.73,0,0,1-1.19-2.1,6.33,6.33,0,0,0-1.31-3.25c-.75-1-2.62-2.95-3.43-4a6,6,0,0,1-1.16-3.54c.08-.83.7-1.41,1.34-1.05s3.66,3.37,4.58,4.25A15.13,15.13,0,0,0,27.42,36a3.78,3.78,0,0,0,3.53.07Z" style="fill:#fbf9f8;fill-rule:evenodd"/><path d="M51.3,28.07l.34.34.16.43,0,.48-.34.78-.78,1-.4.66-.42.81-.24.57s.09.55.09.55l.53,1.13s.1.5.1.5,0,.61,0,.63l-.18.24-1,.22-.7.11-.15-.27-.61-.12-.24.08-.56-.73s-.31-.63-.31-.65a4.9,4.9,0,0,1,0-.54s.3-.47.32-.48l.78-.29.5-.2.65-.67.41-.93.14-.88.06-1.41.21-.85.45-.49.68-.2.52.16Z" style="fill-rule:evenodd;fill:url(#New_Gradient_124)"/><polygon points="21.97 36.83 22.68 37.6 23.1 36.42 23.78 33.95 23.9 33.35 22.31 31.84 22.18 32.66 21.79 34.85 21.48 36.22 21.97 36.83 21.97 36.83" style="fill:#fce94f;fill-rule:evenodd"/><path d="M30.87,35.9c.74-.36,2-1,3.25-1.72,1.43-.77,2.89-1.56,3.72-2A34.16,34.16,0,0,1,41.05,31a19,19,0,0,1,2.73-.78,5.34,5.34,0,0,0,1.37-.37,4.29,4.29,0,0,0,1-.63,3.6,3.6,0,0,0,.51-.52,3.63,3.63,0,0,1,2.27-1.4,5.89,5.89,0,0,1,2.37,0A7.18,7.18,0,0,1,53,27.8h0A4,4,0,0,1,54.24,29a5.56,5.56,0,0,1,.88,1.68l.13.52a9.58,9.58,0,0,0,1.16,3.11,24.89,24.89,0,0,1,1.33,2.25c.42.78.82,1.63,1.16,2.45s.72,1.82,1.05,2.74.64,1.82.84,2.51c.41,1.38.74,3.09.74,3.09l0,.1-.08.07-5.3,4.44-.08.06L56,52,49.28,49.3l-.1,0v-.11s-.58-5.39-.72-7.5c-.06-.82-.1-1.74-.12-2.59,0-1.29,0-2.39,0-2.6a.23.23,0,0,0-.13-.06.64.64,0,0,0-.24,0h-.23c-.08.09-.92.86-1.72,1.48a6.19,6.19,0,0,1-1.15.76,29.72,29.72,0,0,1-3.25,1c-1.2.3-2.5.59-3.5.75a41.4,41.4,0,0,1-5,.27,17.52,17.52,0,0,0-2,.08c-.26.08-.9.31-1.48.54a8.43,8.43,0,0,0-1,.43h0a6.63,6.63,0,0,0-1.11,1.06c-.18.2-.34.37-.46.48a1.55,1.55,0,0,1-.88.33,1.77,1.77,0,0,1-1-.13,2.63,2.63,0,0,1-.9-1A3,3,0,0,1,24,41.13a5.07,5.07,0,0,0-.36-1.54A8,8,0,0,0,22.67,38c-.41-.56-1.16-1.4-1.89-2.21-.59-.66-1.17-1.3-1.53-1.76a5.92,5.92,0,0,1-.9-1.75,5.26,5.26,0,0,1-.29-1.92h0a1.74,1.74,0,0,1,.21-.71,1.33,1.33,0,0,1,.42-.46h0a.89.89,0,0,1,.57-.14.9.9,0,0,1,.4.13,42.08,42.08,0,0,1,3.71,3.4l.9.87a22.59,22.59,0,0,0,1.81,1.52,7.8,7.8,0,0,0,1.41.89,5.86,5.86,0,0,0,1.54.45,2.81,2.81,0,0,0,1.83-.37Zm3.42-1.41c-1.27.68-2.51,1.36-3.26,1.72a3.2,3.2,0,0,1-2,.42,6.39,6.39,0,0,1-1.64-.48,8.18,8.18,0,0,1-1.48-.93A21.35,21.35,0,0,1,24,33.68l-.9-.88a46,46,0,0,0-3.64-3.35.56.56,0,0,0-.26-.08.59.59,0,0,0-.36.09h0a1.08,1.08,0,0,0-.3.33,1.46,1.46,0,0,0-.17.57,4.79,4.79,0,0,0,.29,1.78,5.28,5.28,0,0,0,.83,1.64c.36.46.93,1.1,1.52,1.75.74.81,1.5,1.66,1.92,2.24a7.9,7.9,0,0,1,.95,1.69,5.28,5.28,0,0,1,.39,1.65,2.73,2.73,0,0,0,.34,1.12,2.37,2.37,0,0,0,.76.84,1.56,1.56,0,0,0,.78.09,1.24,1.24,0,0,0,.67-.25c.11-.1.27-.27.44-.46a7.07,7.07,0,0,1,1.19-1.12h0a8.8,8.8,0,0,1,1-.46c.58-.23,1.23-.46,1.51-.54a14,14,0,0,1,2.05-.1A42.62,42.62,0,0,0,38,40c1-.16,2.27-.45,3.47-.75a31.17,31.17,0,0,0,3.19-.94,5.52,5.52,0,0,0,1.07-.72c.79-.61,1.62-1.36,1.7-1.44a.68.68,0,0,1,.49-.11h0a1.19,1.19,0,0,1,.32.05.63.63,0,0,1,.28.15.33.33,0,0,1,.1.25c0,.16,0,1.27,0,2.59,0,.83.06,1.75.12,2.57.12,1.94.62,6.63.7,7.39L56,51.59l5.13-4.3c-.07-.38-.36-1.79-.71-3-.2-.68-.49-1.56-.82-2.48s-.7-1.88-1.05-2.73-.74-1.64-1.15-2.42a24.25,24.25,0,0,0-1.31-2.22,10,10,0,0,1-1.21-3.22c0-.18-.09-.35-.13-.51A5,5,0,0,0,54,29.18a3.69,3.69,0,0,0-1.15-1.06h0a6.63,6.63,0,0,0-1.58-.52,5.75,5.75,0,0,0-2.23,0,3.36,3.36,0,0,0-2.08,1.29,3.71,3.71,0,0,1-.55.57,4.52,4.52,0,0,1-1.08.67,6.09,6.09,0,0,1-1.45.4,18,18,0,0,0-2.67.76c-1.16.4-2.38.88-3.18,1.25s-2.27,1.18-3.7,2Z"/><path d="M52.51,50.28a34.57,34.57,0,0,0-.06-7.59,34.64,34.64,0,0,0-2.19-6.52M55,31.37c-.64.32-1,.92-1.74,1.41A17,17,0,0,0,51.43,34a6.63,6.63,0,0,0-1.06,1.32m-2.83.95c-.44-.4-1.06-1.31-1-1.81s.39-.7,1.11-.86,1.2-.9,1.5-1.64a18.87,18.87,0,0,0,.31-2.8A1.37,1.37,0,0,1,51.16,28m.21-.45c-.09.34-.21.44-.06.61a1.13,1.13,0,0,1,.53,1.23c-.15.83-1.06,1.44-1.43,2.25s-.91,1.22-.69,2,.65,1.19.69,1.79,0,.91-.71,1a6,6,0,0,1-1.18.08M46.3,29.29c0,.71.09,3,0,3.78a6,6,0,0,0,0,1.23m-5.11-3.11c.18.58,1,1.39,1.26,2.27a7.22,7.22,0,0,1,0,3.34m-.17,0a2.14,2.14,0,0,0,1.53,1.92m-8.32,1.53a5.32,5.32,0,0,1,.4-2.56m-8.39-1.64c-.53,1-1.06,3.15-.59,3.79a1.49,1.49,0,0,0,2,.43c.82-.36,3.28-2.28,4.16-2.56a19.79,19.79,0,0,1,4.07,0,29.67,29.67,0,0,0,3.12-.25,10.76,10.76,0,0,0,2.93-1.06c.56-.33,3.46-2.31,3.46-2.31M24.1,40.69c.39-.45,1.71-2.09,2.66-1.52M25.82,35a16.9,16.9,0,0,1-2.38,3.77m.44-5.48a19,19,0,0,1-1.24,4.27m-.37-5.9a35.32,35.32,0,0,1-.81,4.51m-.39-5.7a22.44,22.44,0,0,1-.9,4.34" style="fill:none;fill-rule:evenodd"/><path d="M52.38,50.26a30.28,30.28,0,0,0,.18-3.84,28.48,28.48,0,0,0-.24-3.72,32.35,32.35,0,0,0-2.11-6.34,1.6,1.6,0,0,1-.49.14,5.37,5.37,0,0,1-1.2.08v-.25a6.21,6.21,0,0,0,1.16-.07c.32,0,.48-.13.55-.26h0a1.31,1.31,0,0,0,.05-.63,2.46,2.46,0,0,0-.32-.93,4.08,4.08,0,0,1-.36-.84A1.59,1.59,0,0,1,50,32.19c.11-.19.23-.39.34-.63a4.45,4.45,0,0,1,.7-1,3,3,0,0,0,.73-1.23.91.91,0,0,0-.38-1h0l-.12-.12h0a.33.33,0,0,1-.08-.11h0a1.32,1.32,0,0,0-1,.17,1.44,1.44,0,0,0-.54.87,6.69,6.69,0,0,0-.08,1A5.77,5.77,0,0,1,49.3,32a3.88,3.88,0,0,1-.69,1.16,1.71,1.71,0,0,1-.9.55A2,2,0,0,0,47,34a.72.72,0,0,0-.27.48,1.28,1.28,0,0,0,.21.75h0a3.64,3.64,0,0,0,.72,1l-.17.19a4.07,4.07,0,0,1-.77-1h0a1.56,1.56,0,0,1-.24-.87c-.75.51-2.73,1.84-3.18,2.1a6.87,6.87,0,0,1-.82.41,1.73,1.73,0,0,0,.41,1,2.31,2.31,0,0,0,1,.73l-.08.23a2.55,2.55,0,0,1-1.16-.8,2.15,2.15,0,0,1-.46-1l-.48.19a6.86,6.86,0,0,1-1.42.38c-.49.07-1.11.13-1.71.18s-1.05.07-1.43.07l-.94,0h-.17a2.93,2.93,0,0,0-.32,1h0a8,8,0,0,0-.07,1.47l-.25,0a7.94,7.94,0,0,1,.08-1.53,3.42,3.42,0,0,1,.28-1,9.86,9.86,0,0,0-2.64.08,14,14,0,0,0-2.37,1.44A16.36,16.36,0,0,1,29,40.43a1.9,1.9,0,0,1-1.19.16,1.57,1.57,0,0,1-.93-.64,1.41,1.41,0,0,1-.2-.69c-.81-.44-2,.92-2.4,1.43l-.07.08L24,40.61l.07-.08c.45-.53,1.62-1.9,2.59-1.54a5.37,5.37,0,0,1,.06-.67A8,8,0,0,1,27.44,36l.22.12a7.59,7.59,0,0,0-.69,2.2,2.24,2.24,0,0,0,.09,1.45,1.36,1.36,0,0,0,.79.55,1.63,1.63,0,0,0,1-.15,15.26,15.26,0,0,0,1.74-1.1,14.5,14.5,0,0,1,2.43-1.47,12.06,12.06,0,0,1,3.18-.07l.93,0c.37,0,.88,0,1.41-.07s1.22-.11,1.7-.18A6.34,6.34,0,0,0,41.63,37c.28-.1.54-.2.78-.31a5.82,5.82,0,0,0,.17-1.53,5.77,5.77,0,0,0-.17-1.65,5.46,5.46,0,0,0-.73-1.34,3.61,3.61,0,0,1-.53-.92l.23-.08a4.05,4.05,0,0,0,.5.86,5.53,5.53,0,0,1,.77,1.41,6.26,6.26,0,0,1,.18,1.72,7.17,7.17,0,0,1-.13,1.4l.44-.23c.44-.26,2.32-1.52,3.11-2.06a6.11,6.11,0,0,1,0-1.19c0-.32,0-.89,0-1.5,0-.88,0-1.84,0-2.27h.25c0,.42,0,1.39,0,2.28,0,.61,0,1.19,0,1.52a6.34,6.34,0,0,0,0,1l.1-.07a.92.92,0,0,1,.24-.28,2.16,2.16,0,0,1,.84-.32,1.44,1.44,0,0,0,.77-.48,3.63,3.63,0,0,0,.64-1.08,5.84,5.84,0,0,0,.22-1.72,7,7,0,0,1,.09-1.06,1.65,1.65,0,0,1,.64-1,1.52,1.52,0,0,1,1.11-.23l0-.12h0a2.19,2.19,0,0,0,.07-.23l.24.06a1.15,1.15,0,0,1-.08.26h0c0,.11-.07.17,0,.24h0l.1.08h0A1.16,1.16,0,0,1,52,29.39a3.2,3.2,0,0,1-.79,1.34,4.21,4.21,0,0,0-.66.94,6.32,6.32,0,0,1-.36.65,1.39,1.39,0,0,0-.32,1.21,4.93,4.93,0,0,0,.34.8,6.21,6.21,0,0,1,.27.6,5.68,5.68,0,0,1,.9-1.07,6.86,6.86,0,0,1,1.09-.72c.23-.14.48-.28.77-.47a5.56,5.56,0,0,0,.84-.7,3.4,3.4,0,0,1,.9-.71l.11.22a3.3,3.3,0,0,0-.84.67,5.59,5.59,0,0,1-.88.73c-.28.19-.54.33-.78.47a6,6,0,0,0-1.05.7,5.84,5.84,0,0,0-1,1.22.28.28,0,0,1,0,.09,1.47,1.47,0,0,1-.08.76h0l0,.06a34.27,34.27,0,0,1,2.16,6.49,28.84,28.84,0,0,1,.24,3.75,31.08,31.08,0,0,1-.18,3.88l-.25,0ZM25.94,35.07A7.74,7.74,0,0,1,25,36.81a15.68,15.68,0,0,1-1.51,2.09l-.16-.19a15.61,15.61,0,0,0,1.46-2A7.85,7.85,0,0,0,25.7,35l.24.06ZM24,33.33a12,12,0,0,1-.5,2.21,11.37,11.37,0,0,1-.76,2.12l-.21-.12a13,13,0,0,0,.73-2.07,13.61,13.61,0,0,0,.5-2.34l.24.2Zm-1.61-1.62a15.75,15.75,0,0,1-.29,2c-.19,1.07-.47,2.31-.56,2.61l-.2-.19c.1-.29.33-1.4.52-2.46a17.47,17.47,0,0,0,.28-2ZM21.2,30.52a22.34,22.34,0,0,1-.92,4.38l-.22-.11A22.4,22.4,0,0,0,21,30.5l.25,0Z"/><polygon points="61.22 82.23 61.4 81.17 59.41 79.12 61.72 79.55 62.59 77.17 63.75 79.93 66.06 80.66 64.19 82.09 64.69 84.57 62.87 83.01 62.01 83.25 61.22 82.23 61.22 82.23" style="fill:#fce94f;fill-rule:evenodd"/><path d="M61.05,82.2l.16-1-1.92-2-.38-.39.53.1,2.17.4.82-2.24.15-.42.17.41,1.13,2.69,2.23.7.32.1-.27.21-1.78,1.36.49,2.38L65,85l-.39-.33-1.75-1.49-.78.21-.11,0-.07-.09-.79-1,0-.06V82.2Zm.52-1-.16,1,.66.87.76-.21.09,0,.07.06,1.43,1.23-.4-2,0-.1.09-.07,1.59-1.23-2-.63-.08,0,0-.07-1-2.35-.71,2,0,.13-.15,0-1.77-.33,1.61,1.66.06.06,0,.09Z"/><path d="M53.29,82c-1.41-1-5.09-3.46-6.45-4.51a33,33,0,0,1-4.5-4.32,4.63,4.63,0,0,0-2-1.71c-.8-.36-1.84-.18-2.92-1.54a6.29,6.29,0,0,1-1.32-3.73,5.15,5.15,0,0,1,1.49-3.08,11.83,11.83,0,0,0,2.67-2.86,28.61,28.61,0,0,1,3-4.33c1.2-1.4,2.75-3.07,3.79-4.06s2.4-2.06,2.4-2.06L55.8,52.5l.71,7.19s-4.53,3-6.34,4.07-4.3,2.4-4.54,2.51,0,.83.22.89a17.54,17.54,0,0,1,3.25,1.5,45.17,45.17,0,0,1,4.57,5.19c1.31,1.78,3.18,5.7,3.51,6.05a20.72,20.72,0,0,0,2,1.76,13.89,13.89,0,0,0,2.12.71,1.78,1.78,0,0,1,.91,1.38,2.75,2.75,0,0,1-1.32,2,6.26,6.26,0,0,0-2.29,2.65c-.58,1.14-1.43,3.67-2,4.87A6,6,0,0,1,54,96c-.77.31-1.57,0-1.54-.72s1.33-4.79,1.68-6a14.88,14.88,0,0,0,.68-4A3.82,3.82,0,0,0,53.29,82Z" style="fill:#fbf9f8;fill-rule:evenodd"/><path d="M36.88,67.58l.15-.47.31-.33.4-.26.86,0,1.26.23.77,0h.91l.62-.06s.44-.32.44-.32l.77-1s.4-.32.4-.32.53-.31.55-.31l.29.06s.65.8.67.81.41.57.41.57l-.16.25.17.6.18.18-.39.84s-.42.56-.44.57-.44.28-.46.28L44,68.86l-.62-.56L43,67.94l-.89-.28-1,.07-.85.28L39,68.6l-.85.19-.64-.17L37,68.11l-.1-.53Z" style="fill:#fce94f;fill-rule:evenodd"/><polygon points="58.08 89.66 58.44 88.68 57.2 88.84 54.69 89.36 54.1 89.53 53.48 91.64 54.27 91.38 56.4 90.73 57.77 90.38 58.08 89.66 58.08 89.66" style="fill:#fce94f;fill-rule:evenodd"/><path d="M53.18,82.16c-.65-.49-1.82-1.29-3-2.1-1.34-.92-2.71-1.85-3.44-2.42S45,76.22,44.14,75.37a21.43,21.43,0,0,1-2-2.07,5,5,0,0,0-.95-1,4.85,4.85,0,0,0-1-.61,4.43,4.43,0,0,0-.7-.21,3.56,3.56,0,0,1-2.29-1.38A6.1,6.1,0,0,1,36.16,68a7.13,7.13,0,0,1-.28-1.73h0a3.92,3.92,0,0,1,.45-1.67A5.38,5.38,0,0,1,37.43,63l.4-.35a9.76,9.76,0,0,0,2.24-2.46A23.38,23.38,0,0,1,41.46,58c.51-.73,1.07-1.47,1.65-2.15s1.29-1.47,2-2.19,1.32-1.39,1.84-1.89c1.05-1,2.41-2.07,2.42-2.07l.08-.06.09,0,6.37,2.68.1,0v.1l.71,7.19v.11l-.09,0s-4.54,3-6.35,4.08c-.7.42-1.51.87-2.25,1.28-1.13.63-2.1,1.14-2.3,1.23a.82.82,0,0,0,0,.14,1.13,1.13,0,0,0,.08.24c0,.1.09.19.11.19s1.18.43,2.1.86a6.17,6.17,0,0,1,1.2.67A31.28,31.28,0,0,1,51.54,71c.82.93,1.68,2,2.27,2.77a42.31,42.31,0,0,1,2.53,4.33,16.06,16.06,0,0,0,1,1.71c.19.19.68.66,1.15,1.07a8,8,0,0,0,.83.66h0a6.86,6.86,0,0,0,1.45.51l.64.18a1.66,1.66,0,0,1,.7.63,2,2,0,0,1,.33.92A2.75,2.75,0,0,1,62,85a3.06,3.06,0,0,1-1,.93,4.84,4.84,0,0,0-1.21,1,8.15,8.15,0,0,0-1,1.55c-.31.62-.71,1.68-1.1,2.69-.31.83-.62,1.63-.86,2.17A5.9,5.9,0,0,1,55.66,95a5.5,5.5,0,0,1-1.57,1.14h0a1.77,1.77,0,0,1-.73.13,1.19,1.19,0,0,1-.6-.16h0a.91.91,0,0,1-.39-.45,1.07,1.07,0,0,1-.07-.41,44.51,44.51,0,0,1,1.33-4.86L54,89.17a21.25,21.25,0,0,0,.52-2.3,8.56,8.56,0,0,0,.15-1.66,6,6,0,0,0-.31-1.58,2.89,2.89,0,0,0-1.16-1.46h0Zm-2.81-2.39c1.18.81,2.35,1.61,3,2.11a3.14,3.14,0,0,1,1.3,1.62A6.07,6.07,0,0,1,55,85.18a8.46,8.46,0,0,1-.14,1.75,21.91,21.91,0,0,1-.54,2.34c-.07.26-.21.69-.36,1.2a43.72,43.72,0,0,0-1.32,4.77.68.68,0,0,0,0,.26.62.62,0,0,0,.25.28h0a.86.86,0,0,0,.43.11,1.39,1.39,0,0,0,.59-.1,5.1,5.1,0,0,0,1.45-1.07,5.2,5.2,0,0,0,1.08-1.5c.24-.53.55-1.32.86-2.14.39-1,.79-2.09,1.11-2.73a7.72,7.72,0,0,1,1.07-1.62,5.1,5.1,0,0,1,1.29-1.1,2.54,2.54,0,0,0,.84-.82,2.35,2.35,0,0,0,.4-1.06,1.46,1.46,0,0,0-.28-.73,1.26,1.26,0,0,0-.52-.49l-.61-.18a7.31,7.31,0,0,1-1.55-.54h0a9.11,9.11,0,0,1-.87-.7c-.47-.41-1-.88-1.17-1.09a14.5,14.5,0,0,1-1-1.78A44.24,44.24,0,0,0,53.53,74c-.58-.8-1.43-1.82-2.25-2.75-1-1.12-1.94-2.11-2.29-2.41a6,6,0,0,0-1.13-.62c-.9-.42-2-.81-2.06-.85a.66.66,0,0,1-.32-.38h0a1.24,1.24,0,0,1-.1-.31.69.69,0,0,1,0-.32.32.32,0,0,1,.18-.2c.14-.07,1.13-.58,2.29-1.22.72-.41,1.52-.86,2.23-1.28,1.66-1,5.61-3.59,6.25-4l-.69-7L49.46,50c-.3.24-1.42,1.14-2.31,2-.52.5-1.16,1.16-1.83,1.87S44,55.35,43.38,56.05s-1.13,1.41-1.64,2.13-1,1.53-1.37,2.18a10,10,0,0,1-2.31,2.56l-.4.34a4.93,4.93,0,0,0-1,1.44,3.6,3.6,0,0,0-.43,1.51h0a7.2,7.2,0,0,0,.26,1.64,5.84,5.84,0,0,0,1,2,3.32,3.32,0,0,0,2.09,1.25,5.62,5.62,0,0,1,.76.23,4.59,4.59,0,0,1,1.09.66,6,6,0,0,1,1,1.11,18.13,18.13,0,0,0,1.9,2,34.15,34.15,0,0,0,2.56,2.26c.72.55,2.09,1.48,3.43,2.4Z"/><path d="M56.08,56.35a34.1,34.1,0,0,0-6.72,3.53,34.1,34.1,0,0,0-4.8,4.92m-6.44-2c.57.42,1.27.45,2.05.9a17.56,17.56,0,0,0,1.88,1.1,6.5,6.5,0,0,0,1.66.34m2.14,2.08c-.16.57-.68,1.54-1.17,1.69s-.8,0-1.27-.6a2.48,2.48,0,0,0-2.15-.58,18,18,0,0,0-2.63,1,1.37,1.37,0,0,1-1.77-1m-.5,0c.35-.07.49,0,.57-.22a1.14,1.14,0,0,1,.85-1c.81-.24,1.77.29,2.66.25s1.5.25,2.05-.28.76-1.13,1.29-1.43.8-.43,1.22.16a5.63,5.63,0,0,1,.61,1m-5.36,5.24c.62-.35,2.63-1.45,3.34-1.76a5.65,5.65,0,0,0,1.08-.6m-.42,6c.42-.43.78-1.52,1.43-2.16a7.28,7.28,0,0,1,3-1.5m.11.14a2.16,2.16,0,0,0,1-2.24M55,76a5.48,5.48,0,0,1-2.47.81M54.87,85c1.13,0,3.28-.5,3.64-1.21A1.49,1.49,0,0,0,58,81.87c-.69-.56-3.53-1.87-4.18-2.52a19.75,19.75,0,0,1-1.88-3.61,27.92,27.92,0,0,0-1.66-2.67A10.25,10.25,0,0,0,48,71c-.55-.35-3.63-2-3.63-2M60.54,86c-.58-.14-2.64-.56-2.57-1.68m-3.24,2.73a17,17,0,0,1,4.43.39M54.1,89.56a18.73,18.73,0,0,1,4.36-.85m-5.07,3a36.39,36.39,0,0,1,4.37-1.34m-4.89,3a22.64,22.64,0,0,1,4.27-1.17" style="fill:none;fill-rule:evenodd"/><path d="M56.12,56.47a29.89,29.89,0,0,0-3.49,1.59A28.48,28.48,0,0,0,49.43,60a32.38,32.38,0,0,0-4.68,4.78,1.34,1.34,0,0,1,.35.36,6.89,6.89,0,0,1,.63,1l-.23.11a5.81,5.81,0,0,0-.6-1c-.19-.26-.33-.36-.48-.37h0a1.42,1.42,0,0,0-.58.24,2.57,2.57,0,0,0-.68.71,4.53,4.53,0,0,1-.58.71,1.61,1.61,0,0,1-1.42.34,5.31,5.31,0,0,0-.71,0,4.45,4.45,0,0,1-1.2-.16,3,3,0,0,0-1.43-.09.92.92,0,0,0-.73.8h0a1.24,1.24,0,0,0,0,.16h0a.5.5,0,0,1-.07.13h0a1.28,1.28,0,0,0,.6.78,1.45,1.45,0,0,0,1,.09,7.36,7.36,0,0,0,.94-.39,6.27,6.27,0,0,1,1.71-.62,3.8,3.8,0,0,1,1.35.09,1.73,1.73,0,0,1,.9.54,1.92,1.92,0,0,0,.59.53.69.69,0,0,0,.55,0,1.33,1.33,0,0,0,.57-.53h0a4,4,0,0,0,.52-1.07l.24.06a4.32,4.32,0,0,1-.55,1.16h0a1.67,1.67,0,0,1-.68.61c.8.43,2.89,1.58,3.33,1.86.19.12.45.32.74.55a1.79,1.79,0,0,0,.68-.81,2.3,2.3,0,0,0,.17-1.26l.25,0a2.59,2.59,0,0,1-.19,1.4,2.2,2.2,0,0,1-.71.88l.39.35a7.42,7.42,0,0,1,1,1.08c.28.4.62.93.94,1.44s.54.9.72,1.24c.09.19.23.49.39.85l.07.16a3,3,0,0,0,1-.18h0a6.35,6.35,0,0,0,1.34-.61l.13.21a7.74,7.74,0,0,1-1.39.64,3.57,3.57,0,0,1-1,.19,9.77,9.77,0,0,0,1.29,2.32,14.55,14.55,0,0,0,2.36,1.45,16.25,16.25,0,0,1,1.8,1.06,1.88,1.88,0,0,1,.69,1,1.55,1.55,0,0,1-.14,1.12,1.38,1.38,0,0,1-.52.49c0,.92,1.72,1.33,2.37,1.48l.1,0-.06.24-.1,0c-.68-.16-2.43-.58-2.55-1.6a5.17,5.17,0,0,1-.63.25,8,8,0,0,1-2.36.41v-.25a7.74,7.74,0,0,0,2.28-.39,2.41,2.41,0,0,0,1.25-.75,1.35,1.35,0,0,0,.12-1,1.68,1.68,0,0,0-.6-.85,15.76,15.76,0,0,0-1.77-1,14.25,14.25,0,0,1-2.42-1.5,12.08,12.08,0,0,1-1.52-2.79c-.15-.35-.29-.65-.39-.85s-.43-.77-.7-1.22-.66-1-.94-1.43a7.35,7.35,0,0,0-1-1c-.22-.2-.43-.39-.64-.55a6.06,6.06,0,0,0-1.44.55,6,6,0,0,0-1.38.9,5.36,5.36,0,0,0-.86,1.27,4.28,4.28,0,0,1-.58.89L44.16,75a4.29,4.29,0,0,0,.53-.83,5.71,5.71,0,0,1,.91-1.33A6.09,6.09,0,0,1,47,71.87a7.47,7.47,0,0,1,1.3-.52,4.75,4.75,0,0,0-.4-.29c-.43-.27-2.41-1.36-3.25-1.82a6,6,0,0,1-1,.57c-.29.13-.8.39-1.34.68-.78.41-1.62.87-2,1.08l-.13-.22c.37-.21,1.22-.67,2-1.08.55-.29,1.07-.56,1.36-.69a6.59,6.59,0,0,0,.9-.47l-.1-.06A1,1,0,0,1,44,69a2.33,2.33,0,0,1-.67-.6,1.44,1.44,0,0,0-.77-.46,3.57,3.57,0,0,0-1.27-.08,5.75,5.75,0,0,0-1.62.59,7.25,7.25,0,0,1-1,.41,1.65,1.65,0,0,1-1.21-.11,1.49,1.49,0,0,1-.7-.88l-.13,0h0l-.24,0-.05-.24.27,0h0c.12,0,.18,0,.21-.11h0a.68.68,0,0,0,0-.12h0a1.16,1.16,0,0,1,.91-1,3.05,3.05,0,0,1,1.55.09,4.54,4.54,0,0,0,1.14.16,4.42,4.42,0,0,1,.74,0,1.46,1.46,0,0,0,1.23-.27,4.63,4.63,0,0,0,.55-.67,4.35,4.35,0,0,1,.41-.51A6.48,6.48,0,0,1,42,64.89a6.68,6.68,0,0,1-1.13-.64c-.23-.15-.48-.31-.77-.47a5,5,0,0,0-1-.43,3.52,3.52,0,0,1-1-.48l.15-.2a3.31,3.31,0,0,0,1,.44,5.41,5.41,0,0,1,1.06.45c.29.17.54.33.77.48a8.08,8.08,0,0,0,1.1.62,6.79,6.79,0,0,0,1.54.32l.07,0a1.38,1.38,0,0,1,.72-.27h.08a33.47,33.47,0,0,1,4.77-4.89A34.54,34.54,0,0,1,56,56.23l.08.24ZM54.7,86.93a7.92,7.92,0,0,1,2,0,15.63,15.63,0,0,1,2.55.39l-.09.23a16.54,16.54,0,0,0-2.48-.37,8,8,0,0,0-1.89,0l0-.24ZM54,89.45a12.2,12.2,0,0,1,2.2-.57,13.1,13.1,0,0,1,2.23-.29v.24a13,13,0,0,0-2.18.3,13.32,13.32,0,0,0-2.31.63l.07-.31Zm-.71,2.17c.32-.15,1.12-.42,2-.68,1-.32,2.27-.63,2.58-.68l-.08.26c-.3,0-1.39.35-2.43.66a19.24,19.24,0,0,0-1.91.67l-.11-.23Zm-.5,1.61A21.55,21.55,0,0,1,57.14,92v.25a22.71,22.71,0,0,0-4.23,1.17l-.08-.23Z"/><polygon points="79.12 33.25 78.11 33.62 77.3 36.35 76.53 34.13 74.04 34.55 75.87 32.18 75.38 29.81 77.54 30.73 79.45 29.08 78.99 31.43 79.62 32.06 79.12 33.25 79.12 33.25" style="fill:#fce94f;fill-rule:evenodd"/><path d="M79.18,33.41l-.93.34-.78,2.66-.16.52-.18-.52-.71-2.08-2.35.39-.44.07.27-.35,1.79-2.3-.49-2.29-.06-.33.3.13,2.07.88,1.83-1.59.38-.33-.1.5-.44,2.26.57.57.08.08,0,.11-.5,1.19,0,.07-.07,0Zm-1.13,0,.94-.34.43-1-.55-.55-.07-.07,0-.09.36-1.85-1.53,1.32-.08.08-.1-.05-1.85-.79.43,2v.08l0,.06-1.56,2L76.51,34l.14,0,0,.14.59,1.7.65-2.21,0-.09.08,0Z"/><path d="M82.84,40.26c-.23,1.74-.52,6.13-.77,7.84a32.11,32.11,0,0,1-1.54,6A4.52,4.52,0,0,0,80,56.76c.08.87.74,1.68.09,3.29a6.27,6.27,0,0,1-2.6,3,5.07,5.07,0,0,1-3.41.21,12,12,0,0,0-3.8-.92,28,28,0,0,1-5.26-.5c-1.81-.35-4-.89-5.4-1.31s-3-1.08-3-1.08l-.79-6.86,5.91-4.15s4.82,2.48,6.66,3.52,4.21,2.57,4.42,2.73.7-.46.66-.64a18.09,18.09,0,0,1-.28-3.56,46,46,0,0,1,2.27-6.54c.91-2,3.41-5.57,3.54-6a18.81,18.81,0,0,0,.55-2.61,13.39,13.39,0,0,0-.43-2.2A1.83,1.83,0,0,1,80,31.62a2.78,2.78,0,0,1,2.41.16,6.39,6.39,0,0,0,3.44.69c1.27-.06,3.9-.56,5.21-.67a5.93,5.93,0,0,1,3.59,1c.65.52.79,1.36.14,1.7s-4.83,1.2-6.07,1.48a14.93,14.93,0,0,0-3.83,1.39,3.78,3.78,0,0,0-2,2.91Z" style="fill:#f0f0f0;fill-rule:evenodd"/><path d="M78.32,61.65l-.48.1-.44-.11L77,61.42l-.46-.72-.42-1.21-.33-.7-.45-.8L75,57.48s-.5-.22-.5-.22l-1.24-.18-.47-.2-.54-.32s-.09-.27-.09-.29.37-1,.37-1,.3-.64.3-.64l.3,0,.44-.44L73.6,54l.92-.07.71.1.47.27s.23.51.23.53-.19.81-.19.81l-.11.53.2.91.55.85.66.6,1.15.83.59.64.16.65-.2.67-.42.35Z" style="fill:#fce94f;fill-rule:evenodd"/><polygon points="87.13 32.34 86.1 32.51 86.86 33.51 88.54 35.43 88.98 35.87 91.11 35.37 90.5 34.81 88.89 33.28 87.91 32.26 87.13 32.34 87.13 32.34" style="fill:#fce94f;fill-rule:evenodd"/><path d="M83,40.29c-.1.81-.23,2.22-.35,3.66-.14,1.61-.28,3.26-.41,4.18s-.41,2.18-.71,3.37a20.41,20.41,0,0,1-.85,2.71,5.74,5.74,0,0,0-.45,1.35,4.64,4.64,0,0,0,0,1.18,3.92,3.92,0,0,0,.15.71,3.57,3.57,0,0,1-.07,2.67,6.14,6.14,0,0,1-1.3,2,7.21,7.21,0,0,1-1.38,1.09h0a3.85,3.85,0,0,1-1.67.43,5.32,5.32,0,0,1-1.89-.19l-.5-.18a9.7,9.7,0,0,0-3.24-.73c-.75,0-1.66,0-2.61-.13S65.9,62.17,65,62s-1.91-.4-2.87-.63-1.86-.47-2.55-.68c-1.38-.42-3-1.08-3-1.09l-.09,0v-.1l-.8-6.86v-.1l.09-.06,5.91-4.15.09-.06.09,0s4.83,2.49,6.67,3.53c.71.4,1.5.88,2.22,1.33,1.1.67,2,1.27,2.2,1.4l.12-.08a1,1,0,0,0,.17-.18c.07-.09.12-.17.11-.19s-.2-1.24-.28-2.25a6.46,6.46,0,0,1,0-1.39c.09-.46.49-1.79,1-3.23.41-1.17.88-2.42,1.3-3.34a43.81,43.81,0,0,1,2.53-4.33,17.82,17.82,0,0,0,1-1.68c.07-.26.24-.91.36-1.53a7.76,7.76,0,0,0,.17-1h0a6.79,6.79,0,0,0-.27-1.52c-.06-.25-.12-.48-.15-.64a1.69,1.69,0,0,1,.2-.92,1.84,1.84,0,0,1,.65-.74,2.51,2.51,0,0,1,1.3-.22,3,3,0,0,1,1.28.38,5,5,0,0,0,1.49.54,7.48,7.48,0,0,0,1.85.13c.7,0,1.81-.2,2.89-.37.87-.13,1.73-.26,2.31-.31a6,6,0,0,1,2,.22,5.18,5.18,0,0,1,1.76.8h0a2,2,0,0,1,.48.57,1.36,1.36,0,0,1,.15.6h0a.87.87,0,0,1-.2.56.92.92,0,0,1-.32.26,43,43,0,0,1-4.89,1.23l-1.22.27a20.85,20.85,0,0,0-2.26.68,7,7,0,0,0-1.51.69,5.36,5.36,0,0,0-1.23,1,2.83,2.83,0,0,0-.7,1.73h0Zm-.7,3.63c.13-1.44.25-2.85.36-3.67a3.1,3.1,0,0,1,.77-1.93,5.75,5.75,0,0,1,1.3-1.11,8,8,0,0,1,1.59-.73,21.56,21.56,0,0,1,2.3-.69l1.23-.27a45.79,45.79,0,0,0,4.8-1.2.58.58,0,0,0,.21-.16.55.55,0,0,0,.12-.35h0a1.06,1.06,0,0,0-.11-.44,1.6,1.6,0,0,0-.38-.45,5,5,0,0,0-1.64-.74A5.32,5.32,0,0,0,91,32c-.58.05-1.42.18-2.29.31-1.09.16-2.21.33-2.92.37a7.72,7.72,0,0,1-1.94-.14,5.27,5.27,0,0,1-1.6-.58,2.56,2.56,0,0,0-1.12-.33,2.2,2.2,0,0,0-1.12.18,1.51,1.51,0,0,0-.5.59,1.22,1.22,0,0,0-.16.7c0,.15.08.37.14.62a7.27,7.27,0,0,1,.28,1.61h0a8,8,0,0,1-.17,1.09c-.13.62-.3,1.29-.38,1.56a14.56,14.56,0,0,1-1,1.77A41,41,0,0,0,75.69,44c-.41.9-.88,2.14-1.29,3.31a31.1,31.1,0,0,0-1,3.18,5.55,5.55,0,0,0,0,1.29c.08,1,.25,2.1.28,2.21a.77.77,0,0,1-.18.47h0a2.5,2.5,0,0,1-.22.24.73.73,0,0,1-.29.15.31.31,0,0,1-.25,0c-.13-.1-1.07-.7-2.19-1.4-.71-.43-1.5-.91-2.21-1.31-1.69-1-5.88-3.13-6.56-3.48l-5.75,4,.77,6.66c.36.15,1.7.68,2.87,1,.68.21,1.58.44,2.53.67s1.95.45,2.85.62a26.41,26.41,0,0,0,2.65.38c1,.09,1.84.13,2.57.13a10,10,0,0,1,3.37.76l.49.17a5.06,5.06,0,0,0,1.76.17,3.56,3.56,0,0,0,1.51-.37h0a6.63,6.63,0,0,0,1.31-1A5.62,5.62,0,0,0,80,60,3.32,3.32,0,0,0,80,57.55a3.77,3.77,0,0,1-.17-.78,4.89,4.89,0,0,1,0-1.27,5.91,5.91,0,0,1,.47-1.43,19.52,19.52,0,0,0,.83-2.65c.3-1.19.58-2.47.7-3.34s.27-2.55.41-4.16Z"/><path d="M59.1,50.45a35.09,35.09,0,0,0,6.38,4.12,34.28,34.28,0,0,0,6.65,1.76m1.39,6.6c.09-.71-.23-1.33-.22-2.22a16.23,16.23,0,0,0,0-2.18,6.25,6.25,0,0,0-.52-1.61M73.57,54a2.87,2.87,0,0,1,2.05.19c.36.35.37.71.1,1.4a2.48,2.48,0,0,0,.55,2.15c.45.66,1.71,1.33,2.16,1.8a1.37,1.37,0,0,1,0,2m.25.44c-.23-.27-.24-.43-.47-.39a1.14,1.14,0,0,1-1.32-.24c-.61-.58-.62-1.68-1.09-2.44s-.52-1.42-1.26-1.64-1.35-.11-1.87-.42-.77-.48-.47-1.14a6.75,6.75,0,0,1,.59-1m7.21,2.1c-.62-.37-2.55-1.58-3.18-2.05a5.32,5.32,0,0,0-1.05-.64m5.41-2.57c-.59-.16-1.71.07-2.59-.19a7.35,7.35,0,0,1-2.78-1.86m.07-.17a2.15,2.15,0,0,0-2.44.23m3.29-7.8a5.37,5.37,0,0,1,1.91,1.75m6-6.1c-.54-1-2.05-2.62-2.84-2.58a1.5,1.5,0,0,0-1.45,1.41c-.14.87.1,4-.14,4.88A20.2,20.2,0,0,1,78,44.53a28.06,28.06,0,0,0-1.51,2.75,9.89,9.89,0,0,0-.72,3c0,.65,0,4.16,0,4.16M82.74,32c.16.58.81,2.58-.2,3.06m4,1.49a16.51,16.51,0,0,1-1.84-4.06M89,35.86a18.89,18.89,0,0,1-2.89-3.39m5.13,2.94a37.63,37.63,0,0,1-3.32-3.15m5,2.8a22.07,22.07,0,0,1-3.12-3.14" style="fill:none;fill-rule:evenodd"/><path d="M59.19,50.35a29.23,29.23,0,0,0,3.1,2.26,30.88,30.88,0,0,0,3.24,1.85A32.49,32.49,0,0,0,72,56.18a1.49,1.49,0,0,1,.14-.49,6.12,6.12,0,0,1,.6-1l.21.14a6,6,0,0,0-.58,1c-.14.29-.15.47-.09.59h0a1.27,1.27,0,0,0,.5.39,2.26,2.26,0,0,0,1,.24,5.43,5.43,0,0,1,.9.17c.57.17.76.57,1,1.07.09.19.2.41.33.63A4,4,0,0,1,76.4,60,2.94,2.94,0,0,0,77,61.3a.93.93,0,0,0,1.06.25h0a.53.53,0,0,1,.16,0h0a.4.4,0,0,1,.15,0h0a1.26,1.26,0,0,0,.39-.91,1.39,1.39,0,0,0-.42-.93,6.6,6.6,0,0,0-.81-.63,6.08,6.08,0,0,1-1.37-1.19,3.58,3.58,0,0,1-.59-1.21,1.74,1.74,0,0,1,0-1.06,1.85,1.85,0,0,0,.17-.77.71.71,0,0,0-.25-.49,1.34,1.34,0,0,0-.73-.24h0a3.8,3.8,0,0,0-1.2.08l-.06-.24a4.34,4.34,0,0,1,1.28-.09h0a1.68,1.68,0,0,1,.86.29c0-.91,0-3.29,0-3.82a8.73,8.73,0,0,1,.12-.9,1.76,1.76,0,0,0-1.05-.2,2.28,2.28,0,0,0-1.18.47l-.15-.2a2.6,2.6,0,0,1,1.31-.52,2.15,2.15,0,0,1,1.12.19c0-.17.07-.34.11-.51a6.76,6.76,0,0,1,.46-1.4c.21-.44.5-1,.78-1.52s.52-.92.73-1.24.32-.45.55-.76l.11-.14a3.18,3.18,0,0,0-.67-.82h0a7.72,7.72,0,0,0-1.19-.87l.12-.22a7.77,7.77,0,0,1,1.24.91,3.56,3.56,0,0,1,.66.78,9.66,9.66,0,0,0,1.39-2.26,15.38,15.38,0,0,0,.1-2.77,15.82,15.82,0,0,1,0-2.09,1.9,1.9,0,0,1,.52-1.09,1.54,1.54,0,0,1,1-.42,1.36,1.36,0,0,1,.69.21c.81-.44.31-2.15.13-2.79l0-.1.24-.07,0,.1c.19.66.69,2.4-.14,3a6.06,6.06,0,0,1,.53.42,7.77,7.77,0,0,1,1.51,1.86l-.22.12a7.7,7.7,0,0,0-1.46-1.8A2.24,2.24,0,0,0,81.85,35a1.36,1.36,0,0,0-.89.35,1.66,1.66,0,0,0-.44.95,13.65,13.65,0,0,0,0,2.05,15.16,15.16,0,0,1-.11,2.84,12.23,12.23,0,0,1-1.7,2.7c-.22.3-.42.57-.54.75s-.46.75-.72,1.22-.57,1.07-.78,1.51a7.38,7.38,0,0,0-.44,1.35c-.07.28-.12.56-.17.82a6.52,6.52,0,0,0,1.19,1,5.8,5.8,0,0,0,1.46.75,5.23,5.23,0,0,0,1.53.13,4.26,4.26,0,0,1,1.06.06l-.07.24a4.1,4.1,0,0,0-1-.05,5.82,5.82,0,0,1-1.61-.14,6.4,6.4,0,0,1-1.53-.79,6.61,6.61,0,0,1-1.1-.88c0,.2,0,.37,0,.5,0,.51,0,2.77,0,3.72a5.85,5.85,0,0,1,1,.63c.26.19.74.51,1.25.84.74.48,1.56,1,1.92,1.2l-.13.22-1.93-1.21c-.52-.33-1-.65-1.26-.85a6.39,6.39,0,0,0-.86-.55v.12a1.06,1.06,0,0,1,.09.36,2,2,0,0,1-.19.87,1.45,1.45,0,0,0,0,.9,3.64,3.64,0,0,0,.55,1.14,6,6,0,0,0,1.31,1.13,5.59,5.59,0,0,1,.84.66,1.64,1.64,0,0,1,.5,1.1,1.53,1.53,0,0,1-.42,1l.08.1h0a1.12,1.12,0,0,0,.15.19l-.19.17a2,2,0,0,1-.16-.21h0c-.08-.1-.11-.15-.2-.14h0l-.13,0h0a1.16,1.16,0,0,1-1.3-.31,3,3,0,0,1-.68-1.39A4.43,4.43,0,0,0,75.74,59a5.2,5.2,0,0,1-.34-.66c-.21-.44-.38-.79-.84-.93a4,4,0,0,0-.86-.16,4.28,4.28,0,0,1-.64-.1,5.73,5.73,0,0,1,.4,1.34,7.16,7.16,0,0,1,0,1.31c0,.27,0,.56,0,.89a5.82,5.82,0,0,0,.13,1.09A3.71,3.71,0,0,1,73.64,63l-.24,0a3.55,3.55,0,0,0-.09-1.07,5.47,5.47,0,0,1-.14-1.14c0-.34,0-.63,0-.91a6.63,6.63,0,0,0,0-1.26,6.14,6.14,0,0,0-.48-1.5l-.08,0a1.58,1.58,0,0,1-.59-.49h0l0-.07a33.37,33.37,0,0,1-6.6-1.76,28.73,28.73,0,0,1-3.27-1.86A30.53,30.53,0,0,1,59,50.54l.17-.19ZM86.41,36.62a8.17,8.17,0,0,1-.94-1.71,15.23,15.23,0,0,1-.92-2.41l.24,0a16.92,16.92,0,0,0,.9,2.34,8,8,0,0,0,.91,1.65l-.19.16ZM88.94,36a12.5,12.5,0,0,1-1.58-1.63A14.15,14.15,0,0,1,86,32.53l.22-.12a12.91,12.91,0,0,0,1.32,1.75,13.15,13.15,0,0,0,1.69,1.7l-.3.1Zm2.24-.45a18.47,18.47,0,0,1-1.55-1.37c-.79-.74-1.67-1.66-1.86-1.9l.26-.06c.19.24,1,1,1.77,1.78a17.06,17.06,0,0,0,1.52,1.34l-.14.21Zm1.64-.35A23.66,23.66,0,0,1,89.67,32l.22-.13A22.79,22.79,0,0,0,93,35l-.16.19Z"/><path d="M49.34,48.61A8.22,8.22,0,0,0,49.19,50c0,.45,4.07,2.46,5.63,2.71,0,0,.43,6.22,1.42,7l1.36,0A34.54,34.54,0,0,1,57,52.49s4.36-3.28,4.86-4.06A2.63,2.63,0,0,0,61.24,47a63.71,63.71,0,0,1-5.65,4,20.65,20.65,0,0,1-6.25-2.44Z" style="fill:#fce94f;stroke:#000;stroke-miterlimit:2.4142;stroke-width:0.500031px;fill-rule:evenodd"/></g></g></svg>