<!DOCTYPE svg PUBLIC "-//W3C//DTD SVG 20010904//EN" "http://www.w3.org/TR/2001/REC-SVG-20010904/DTD/svg10.dtd">
<svg version="1.0" xmlns="http://www.w3.org/2000/svg" width="600px" height="376px" viewBox="0 0 6000 3760" preserveAspectRatio="xMidYMid meet">
<g id="layer101" fill="#000000" stroke="none">
 <path d="M0 1880 l0 -1880 3000 0 3000 0 0 1880 0 1880 -3000 0 -3000 0 0 -1880z"/>
 </g>
<g id="layer102" fill="#fcfcfc" stroke="none">
 <path d="M3962 3283 c-49 -49 -114 -103 -144 -120 -39 -24 -159 -64 -433 -144 -209 -61 -384 -114 -388 -119 -5 -4 63 -34 150 -67 l158 -60 129 34 c328 88 505 104 671 63 44 -11 106 -20 138 -20 48 0 62 4 82 25 38 37 32 67 -31 138 -19 20 -34 46 -34 57 0 11 -9 37 -20 57 -11 21 -20 56 -20 79 0 32 -7 51 -32 82 -40 48 -87 82 -115 82 -13 0 -56 -34 -111 -87z m138 -171 c35 -28 17 -46 -37 -38 -52 7 -127 -17 -205 -64 -28 -18 -65 -34 -83 -37 -43 -7 -108 21 -103 44 3 15 13 18 57 15 45 -2 62 2 117 33 35 20 81 42 102 50 55 20 125 19 152 -3z m-549 -162 c13 0 11 -27 -3 -36 -6 -4 -17 1 -25 11 -18 25 -17 39 3 31 9 -3 20 -6 25 -6z"/>
 <path d="M1775 3316 c-16 -7 -51 -36 -77 -64 -40 -43 -48 -58 -48 -89 0 -22 9 -56 20 -78 21 -41 21 -42 -28 -97 -31 -34 -52 -122 -39 -161 11 -32 53 -57 95 -57 16 0 81 26 143 57 l114 58 120 3 c202 6 277 -15 980 -278 165 -61 341 -131 392 -155 222 -105 371 -214 453 -335 69 -101 113 -130 196 -130 86 0 121 79 74 170 -28 54 -25 72 15 108 35 30 36 33 33 93 -3 59 -4 62 -46 92 -39 29 -50 31 -160 38 -134 8 -175 22 -797 258 -767 292 -1065 416 -1307 546 -60 33 -96 38 -133 21z m162 -132 c163 -68 298 -142 283 -157 -3 -3 -37 10 -75 28 -39 19 -124 52 -189 74 -119 40 -139 52 -129 78 7 18 12 17 110 -23z m-95 -150 c16 -34 16 -38 0 -60 -10 -14 -25 -23 -37 -21 -18 2 -20 8 -16 52 1 28 5 53 8 58 10 17 30 5 45 -29z m1776 -498 c23 -8 100 -43 173 -76 72 -34 161 -72 197 -84 74 -24 88 -41 42 -51 -51 -11 -96 3 -239 75 -75 37 -154 73 -176 80 -65 20 -105 41 -105 56 0 19 55 18 108 0z m432 -315 c0 -72 -17 -94 -48 -61 -26 29 -34 62 -22 94 7 20 16 26 40 26 30 0 30 0 30 -59z"/>
 <path d="M2345 2699 c-71 -27 -197 -72 -278 -100 -146 -50 -148 -51 -232 -44 l-85 7 -45 -44 c-41 -42 -45 -49 -45 -96 0 -37 8 -65 32 -108 26 -48 33 -75 38 -143 6 -78 9 -86 38 -112 71 -64 161 -21 221 106 73 155 138 192 786 460 30 12 36 18 25 24 -38 21 -280 101 -301 100 -13 -1 -82 -23 -154 -50z m-235 -196 c0 -8 -13 -13 -34 -13 -27 0 -36 5 -41 21 -10 31 13 41 47 21 15 -9 28 -22 28 -29z m-155 -33 c0 -9 -11 -16 -27 -18 -27 -3 -38 14 -21 32 12 12 48 2 48 -14z m-97 -22 c13 -13 -2 -38 -24 -38 -7 0 -21 -11 -30 -25 -31 -47 -65 -25 -39 25 22 42 69 62 93 38z"/>
 <path d="M2853 2310 c-117 -9 -146 -22 -218 -102 -64 -72 -145 -196 -145 -223 0 -13 14 -65 30 -117 30 -89 52 -129 66 -115 9 9 25 83 29 134 8 115 65 193 163 223 127 40 365 21 464 -37 39 -23 96 -124 108 -196 10 -52 43 -107 65 -107 8 0 22 15 32 33 14 26 17 52 14 141 -3 101 -5 114 -34 165 -41 75 -52 87 -119 126 -117 69 -250 91 -455 75z"/>
 <path d="M2914 2085 c-3 -8 -7 -29 -8 -47 -1 -30 2 -33 32 -36 31 -3 32 -2 32 35 0 40 -14 63 -37 63 -8 0 -16 -7 -19 -15z"/>
 <path d="M3012 2088 c-7 -7 -12 -29 -12 -50 0 -36 2 -38 30 -38 27 0 30 3 30 31 0 32 -15 69 -28 69 -5 0 -13 -5 -20 -12z"/>
 <path d="M2820 2054 c-15 -39 -12 -53 14 -60 34 -8 44 1 38 33 -10 55 -36 69 -52 27z"/>
 <path d="M3107 2063 c-15 -25 -17 -71 -4 -82 34 -27 61 22 41 73 -6 17 -29 22 -37 9z"/>
 <path d="M2747 2043 c-14 -13 -7 -64 9 -70 25 -9 35 10 23 45 -11 32 -19 38 -32 25z"/>
 <path d="M3187 2034 c-4 -4 -7 -20 -7 -36 0 -23 4 -29 18 -26 11 2 17 13 17 32 0 29 -14 43 -28 30z"/>
 <path d="M2688 1998 c-7 -21 3 -48 19 -48 10 0 13 9 11 27 -3 28 -23 42 -30 21z"/>
 <path d="M3239 1987 c-13 -29 -5 -61 14 -55 15 6 22 57 8 71 -7 7 -14 2 -22 -16z"/>
 <path d="M2915 1951 c-3 -6 -1 -29 5 -51 9 -34 15 -41 33 -38 19 3 22 9 22 48 0 41 -2 45 -27 48 -14 2 -29 -2 -33 -7z"/>
 <path d="M3017 1953 c-13 -12 -7 -80 7 -92 20 -17 46 13 46 54 0 36 -32 60 -53 38z"/>
 <path d="M2810 1902 c0 -16 8 -40 19 -53 16 -20 21 -22 35 -10 12 10 16 26 14 50 -3 33 -6 36 -35 39 -31 3 -33 1 -33 -26z"/>
 <path d="M3093 1914 c-10 -27 11 -79 32 -79 20 0 41 55 31 81 -7 19 -55 18 -63 -2z"/>
 <path d="M2744 1878 c7 -37 11 -42 25 -33 6 3 11 19 11 36 0 23 -4 29 -21 29 -19 0 -21 -4 -15 -32z"/>
 <path d="M3180 1871 c0 -34 18 -51 31 -30 17 26 10 59 -11 59 -15 0 -20 -7 -20 -29z"/>
 <path d="M2685 1853 c9 -40 22 -48 35 -23 15 28 6 50 -21 50 -18 0 -20 -4 -14 -27z"/>
 <path d="M3240 1835 c0 -42 24 -49 34 -10 8 30 1 45 -20 45 -9 0 -14 -11 -14 -35z"/>
 <path d="M2895 1790 c-16 -4 -56 -8 -88 -9 -32 0 -71 -8 -87 -16 -27 -14 -28 -19 -28 -72 1 -32 5 -63 11 -70 16 -21 -3 -33 -50 -33 -40 0 -51 5 -79 35 -17 19 -38 35 -47 35 -8 0 -43 -20 -78 -44 -35 -23 -80 -51 -99 -61 -106 -53 -107 -111 -2 -171 50 -29 58 -73 38 -218 -8 -65 -18 -121 -21 -124 -3 -3 -11 0 -18 7 -8 9 -11 49 -9 142 2 109 0 129 -13 129 -8 0 -15 -8 -15 -19 0 -10 -10 -31 -22 -47 -22 -28 -23 -36 -23 -239 0 -210 0 -210 28 -267 52 -105 189 -209 348 -264 222 -75 539 -76 735 -3 76 29 169 94 210 147 58 76 78 161 78 342 1 142 -9 315 -20 349 -11 35 -19 -11 -24 -132 -4 -112 -7 -132 -21 -135 -18 -3 -22 15 -38 175 -12 114 -8 126 55 167 79 53 83 106 11 142 -18 9 -69 41 -114 71 -90 61 -108 62 -143 12 -19 -25 -28 -29 -70 -29 -50 0 -69 12 -53 33 5 7 9 33 8 59 -1 56 -22 77 -75 78 -20 0 -60 6 -90 14 -74 19 -159 26 -195 16z m95 -111 c19 0 49 2 65 3 29 3 30 2 33 -48 2 -35 -4 -71 -19 -110 -11 -33 -27 -75 -34 -94 -10 -26 -20 -36 -39 -38 -21 -3 -26 2 -32 25 -3 15 -12 37 -19 48 -29 47 -51 131 -47 178 4 47 5 49 31 42 14 -4 42 -7 61 -6z m-174 -206 c33 -36 78 -182 70 -227 -12 -61 -93 -93 -196 -75 -84 15 -107 27 -141 78 -27 41 -30 52 -26 99 7 66 34 123 67 139 14 7 63 13 113 13 83 0 89 -2 113 -27z m537 16 c73 -20 101 -138 55 -229 -28 -54 -93 -91 -173 -98 -66 -5 -151 34 -161 74 -14 55 25 192 69 242 18 19 30 22 96 22 42 0 93 -5 114 -11z"/>
 </g>

</svg>