<svg id="Page_1" data-name="Page 1" xmlns="http://www.w3.org/2000/svg" xmlns:xlink="http://www.w3.org/1999/xlink" viewBox="0 0 113.39 113.39"><defs><style>.cls-1,.cls-2,.cls-8{fill:none;}.cls-1{clip-rule:evenodd;}.cls-3{clip-path:url(#clip-path);}.cls-4{fill:#012169;}.cls-10,.cls-5{fill:#f7e017;}.cls-11,.cls-12,.cls-13,.cls-14,.cls-5,.cls-6,.cls-7,.cls-8,.cls-9{stroke:#000;stroke-miterlimit:160;stroke-width:0.07px;}.cls-6{fill:#337321;}.cls-7{fill:#316d3a;}.cls-9{fill:#006ec7;}.cls-11{fill:#fff;}.cls-12{fill:#e5e5e5;}.cls-13{fill:#96877d;}.cls-14{fill:#c8102e;}.cls-15{clip-path:url(#clip-path-2);}.cls-16,.cls-19{stroke:#fff;}.cls-16,.cls-18,.cls-19,.cls-20{stroke-miterlimit:8;}.cls-16,.cls-20{stroke-width:4.87px;}.cls-17{clip-path:url(#clip-path-3);}.cls-18,.cls-20{stroke:#c8102e;}.cls-18{stroke-width:3.25px;}.cls-19{stroke-width:8.11px;}</style><clipPath id="clip-path"><path class="cls-1" d="M56.69,0A56.7,56.7,0,1,1,0,56.69,56.7,56.7,0,0,1,56.69,0Z"/></clipPath><clipPath id="clip-path-2"><rect class="cls-2" x="15.55" y="22.32" width="48.68" height="24.39"/></clipPath><clipPath id="clip-path-3"><path class="cls-2" d="M15.55,22.32V34.49h56.8V46.66H64.24Zm48.69,0H39.9V54.77H15.55V46.66Z"/></clipPath></defs><title>flag_Pitcairn Islands</title><g id="Layer_1" data-name="Layer 1"><g class="cls-3"><rect class="cls-4" x="0.02" width="113.39" height="113.39"/><path class="cls-5" d="M74.1,72.22a9.57,9.57,0,0,0-3.2,4.7c-1,4.61-2.25,5.63-4.23,4.64,0,2.48,2.17,2.67,3.12,1.22a7.79,7.79,0,0,0,2.75,6c.8.73.95.23.57-.57s-.38-3.39-1.14-4.87c1.22.88,3,.38,2.86-2-1.56.92-3.12.88-3.28-1.29C71.36,77.53,72.35,73.82,74.1,72.22Z"/><path class="cls-5" d="M72.25,53.89a2.79,2.79,0,0,0-.76-2.45,2.37,2.37,0,0,0-3.5.16c-1.41-.76-2.16,1.93-3.75,1.48.26.87.68,1.25,1.48,1-.84.76,0,1.68-1,2.59,1.79.57,2.74-.42,2.67-2.13a1.63,1.63,0,0,0,2.32-.12c-1-.31-1-1.13-.58-1.9C69.72,51.33,72.4,51.37,72.25,53.89Z"/><path class="cls-6" d="M76.38,67.13c-2,1.07-5.71.61-6-2s2.2-3.81,2.89-4.15c1.07-.53,1.9.42,1.56,1.53a1.73,1.73,0,0,0,.88-2.59,3.78,3.78,0,0,0,3.61-2.74c-.55.52-2,.17-3.27.09a2,2,0,0,0,.26-1.65c-1.29,1.33-3.15.72-5.63,4.56.38-1.33,1.11-4,1.53-5.75a4.71,4.71,0,0,0,.09-.52c.15-2.52-2.53-2.56-3.1-1.42.63.71.3,1.53.07,2.78a43,43,0,0,1-1.33,6c-.15-1.79-1.33-1.9-1.56-2.78a1.42,1.42,0,0,0-.46,1.26c-.42-.46-1.87.11-2.4-.57-.57,1.14.34,2.28,1.3,2.78-.56,0-.69.7-1.3.7A3.68,3.68,0,0,0,66.1,64.1a2.53,2.53,0,0,1,2.28,1.62C69.34,67.63,73,68.86,76.38,67.13Z"/><path class="cls-5" d="M81.41,64.81a10.19,10.19,0,0,1-5.68,5.75c-2.4.58-7.29,3-8.6,4.18a1.75,1.75,0,0,1-.54-.22,2.19,2.19,0,0,1,0-3.2C70.14,68,74,69.41,76.38,67.13c-2,1.06-5.71.61-6-2a9.29,9.29,0,0,0,9.21-2.74A15.83,15.83,0,0,1,81.41,64.81Z"/><path class="cls-6" d="M74.1,72.22c-1.81,1.54-2.74,5.31-2.55,7.86a2.21,2.21,0,0,0,.55,1.48c.14-1.45,1.14-5.19,3.71-6.86,2.17-1.41,5.56-4.56,6.82-8.18A2.87,2.87,0,0,0,81.3,65C80.05,68.37,76.71,70,74.1,72.22Z"/><path class="cls-7" d="M80.24,63.34a8.46,8.46,0,0,1-3.52,2.84A1.87,1.87,0,0,0,77.14,65a13,13,0,0,1-6.82.08,9.27,9.27,0,0,0,9.21-2.75A3.41,3.41,0,0,1,80.24,63.34Z"/><path class="cls-6" d="M66.56,71.32c-2.91,2.72-1,5.1.15,5.63-.3,1.91,1.48,1.68,1.45,3.28a2.46,2.46,0,0,0,.8-2.4c.91,1,3.23-.12,3.73,1.71.31-2-1.26-4-3.2-3.85a1.34,1.34,0,0,0-.41-2.2,1.59,1.59,0,0,1-2.48,1A2.18,2.18,0,0,1,66.56,71.32Z"/><path class="cls-5" d="M72.86,88.64a.57.57,0,0,0-.1.86c.4.53-.28,1.74,1,2,.38.08.67-.16.82-.59.4-1.2-.88-1.33-1-1.91S73.12,88.49,72.86,88.64Z"/><path class="cls-5" d="M73.94,90.89c-.42.2-.8.48-.62,1.85.06.56,0,1.94-.46,2,.3.15,1,.31,1.22,0,.25.43.83.31,1.06-.23.3.25.73-.17.73-.53.26.17.8-.08.66-.89a.89.89,0,0,0,.89-.33,4.15,4.15,0,0,1-2-1.25A1.26,1.26,0,0,0,73.94,90.89Z"/><path class="cls-8" d="M67.35,52.38A4.84,4.84,0,0,1,68,51.6"/><path class="cls-8" d="M74.59,57.42A2.74,2.74,0,0,1,76,57.24"/><path class="cls-8" d="M74.08,94.66A2.83,2.83,0,0,1,74,93.18"/><path class="cls-8" d="M75.14,94.43a2.18,2.18,0,0,1-.67-1.2"/><path class="cls-8" d="M75.87,93.9a3.25,3.25,0,0,1-1.06-1.5"/><path class="cls-8" d="M76.53,93a3.74,3.74,0,0,1-1.68-1.36"/><path class="cls-5" d="M94.08,71.36c4.69,3.92,5,7,4.27,8.87C98,78.52,96,75.85,94,75.17Z"/><path class="cls-6" d="M85.71,69.15h8.68V79.43A18.27,18.27,0,0,1,84.57,96.1a18.28,18.28,0,0,1-9.83-16.67V69.15h6.09a3.32,3.32,0,0,0,.69,2.13A9.06,9.06,0,0,0,85.71,69.15Z"/><path class="cls-9" d="M94.39,69.15V79.43a19.69,19.69,0,0,1-1.2,7L84.57,70.59,76,86.41a19.73,19.73,0,0,1-1.2-7V69.15Z"/><path class="cls-10" d="M93.45,85.65c-.15.47-.43,1.23-.64,1.69L84.57,72,76.33,87.34a15.79,15.79,0,0,1-.64-1.69l8.88-16.47Z"/><path class="cls-5" d="M88.49,91.29l.83.4a6.09,6.09,0,0,0,.38-3.35c-.49,1.26-2.17,1.22-2.63,2a5.64,5.64,0,0,1,.77.48,8.66,8.66,0,0,1-2.67,1.76V84.39c0-.57-.19-1-.19-1.52V81.18c0-.38-.08-.93-.42-.93s-.42.55-.42.93v1.69c0,.47-.19,1-.19,1.52v8.17c-.41-1.22-2.06-.8-2.82-2a2.2,2.2,0,0,1,.92,0c-.57-2-2.14-2.1-2.44-2.67,0,.8-.34,2.67.19,3.47a1.9,1.9,0,0,1,.52-.42c.65,1.41,3.56,1.41,4.25,3.73C85.12,93.77,87.1,92.78,88.49,91.29Z"/><path class="cls-5" d="M84.57,84.49c.64,0,2.7-.21,3.44-.21.2,0,.36-.28.36-.64S88.21,83,88,83c-.74,0-2.79-.21-3.44-.21s-2.71.21-3.45.21c-.19,0-.35.29-.35.65s.15.64.35.64C81.86,84.28,83.92,84.49,84.57,84.49Z"/><path class="cls-5" d="M84.15,81.15a.84.84,0,0,0-.52-.18.72.72,0,1,0,.78.71.22.22,0,1,1,.44,0,1.23,1.23,0,1,1-1.22-1.11,1.28,1.28,0,0,1,.56.12A4.38,4.38,0,0,0,84.15,81.15Z"/><path class="cls-5" d="M81.12,84.28c.19,0,.35-.28.35-.64s-.16-.65-.35-.65"/><path class="cls-5" d="M81.41,84.28c.19,0,.34-.28.34-.64S81.6,83,81.41,83"/><path class="cls-5" d="M83.29,84.42c.23,0,.42-.35.42-.78s-.19-.78-.42-.78"/><path class="cls-5" d="M83.72,84.45c.25,0,.44-.37.44-.82s-.19-.81-.44-.81"/><path class="cls-5" d="M85.19,84.46c.25,0,.44-.37.44-.83s-.2-.82-.44-.82"/><path class="cls-5" d="M85.65,84.43c.24,0,.44-.35.44-.79s-.2-.8-.44-.8"/><path class="cls-5" d="M87.69,84.29c.2,0,.36-.29.36-.66s-.16-.66-.36-.66"/><path class="cls-5" d="M80.32,90.89a2.62,2.62,0,0,1,.82-.34"/><path class="cls-5" d="M88.07,91l-.23-.16"/><path class="cls-5" d="M88.49,91.29a5.49,5.49,0,0,0,1.22-2"/><path class="cls-11" d="M82.82,76.42c0-.19.15-.27.33-.4s.3-.24.5-.24h2.5c.18,0,.22,0,.22.22v3.39c0,.17,0,.22-.22.22H82.82V76.38"/><path class="cls-12" d="M85.53,79.91c.33,0,.27,0,.5-.24s.22-.22.22-.44V76.12c0-.16,0-.2-.21-.2H83.72c-.18,0-.26.07-.45.22s-.31.2-.31.38v3.39Z"/><path class="cls-11" d="M85.77,79.84c0,.17,0,.22-.22.22h-2.5c-.19,0-.23,0-.23-.22v-3.4c0-.17,0-.22.23-.22h2.5c.18,0,.22,0,.22.22Z"/><path class="cls-13" d="M90.62,67.15a2,2,0,0,1,.38,2h-.72c.3-.91.11-1.78-1.19-1.9-1.93-.17-4.19,3.58-7.57,4a3.43,3.43,0,0,1,.32-4.5,13.92,13.92,0,0,0-3-4.82,10.17,10.17,0,0,0-1.81-.13,6.38,6.38,0,0,1,3-2.64c.18-.27.39-.53.57-.77.11-1.46,7.08-.78,8.57.14C89.25,60.2,89.9,65.67,90.62,67.15Z"/><path d="M82.18,68.16a9.28,9.28,0,0,0-2.64-6.06,3.92,3.92,0,0,0,3-.49c1.25-.84,4.53-2.3,5.73-1.68a1.89,1.89,0,0,1,.08,1c-.29-.76-3.45.42-4.34.78a1.57,1.57,0,0,0-.94,2.14c-.49-.42-.32-.82-.83-1.13a8.53,8.53,0,0,1,.43,2.11,5.39,5.39,0,0,0-1.28-2.26,12.52,12.52,0,0,1,1,5.87,4.94,4.94,0,0,0,2.1-.86,4.2,4.2,0,0,1-2.3,1.12,3.81,3.81,0,0,0-.54,2C81.6,70,81.82,68.27,82.18,68.16Z"/><path d="M90.62,67.15a3.2,3.2,0,0,0-3.31-.67,4.76,4.76,0,0,1,1.16-.38c0-.4-.42-2.11-.47-2.53l.42-.17a27.15,27.15,0,0,0,.64,2.68,4.27,4.27,0,0,1,.71.23c-.12-.4-.76-3.27-.74-3.58l.57-.31A21.78,21.78,0,0,0,90.62,67.15Z"/><path class="cls-13" d="M90.28,69.15c.3-.92.11-1.79-1.18-1.9-1-.09-2.09.88-3.38,1.9Z"/><path class="cls-13" d="M81.86,60.94a7.49,7.49,0,0,1-2.49-.25,2.93,2.93,0,0,1,.19-.54,8.25,8.25,0,0,0-1.45,1.15A5.77,5.77,0,0,0,81.86,60.94Z"/><path class="cls-8" d="M81.84,66.78a6.2,6.2,0,0,1,.37,1.72"/><path class="cls-8" d="M80.12,59.19a4.78,4.78,0,0,0-.75,1.5,7.46,7.46,0,0,0,2.49.25"/><path class="cls-8" d="M78.87,62c.25,0,.48.09.67.14a3.92,3.92,0,0,0,3-.49c1-.69,3.54-2.82,6.47-3"/><path class="cls-8" d="M78.11,61.3a5.76,5.76,0,0,0,3.75-.36,12.82,12.82,0,0,1,6.48-2.49"/><path class="cls-6" d="M94.08,71.36c3.2,2.2,5.56,4.34,6.25,7.76s2,4.34,3.58,3.43c-.38,2-2.36,2.21-4,.69.15,2.28-.76,5-3.13,6-.15-1.37.76-2.45.5-3.58a2.38,2.38,0,0,1,.49-2.17,2.7,2.7,0,0,1-3.42-2.25c1.45.69,3.31.8,4-1S98.77,75.28,94.08,71.36Z"/><path class="cls-6" d="M98.12,53.54c1-2.59,3.58-2.32,4.46-1.22,2.55-1.45,2.89,1.83,5.06,1.18a1.45,1.45,0,0,1-1.56,1.14c.84.76-.34,1.91,1.45,2.59a3.06,3.06,0,0,1-4.23-2.14c-.49,1-2.28,1-3,.2a1.32,1.32,0,0,0,.58-2.44C100,52.27,98.43,52.51,98.12,53.54Z"/><path class="cls-6" d="M90.4,59.24a13.88,13.88,0,0,0,3.76,5.87,4.43,4.43,0,0,0,6.13-.34c0,3.19-3.26,3.43-5.1,2.44-.81-.44-1.46-.22-.68.49,1.18,1.07,3.76,1.86,6.81,2.51,5.33,1.14,3.43,5.37,1.87,5.33.45,0,.81-.47.17-1.05-4.63-4.17-14-2.53-13.88-11.82-1,2.44-5.07,1.49-3.16-1.41.61.5,1.68.53,2-.23a2.32,2.32,0,0,0-1-2.51c.17,0,.55,0,.51-.44a.66.66,0,0,0,.88.51c.17.27.35.45.59.36,0,0,.2-.1.14-.37C89.48,59.1,90.08,59.27,90.4,59.24Z"/><path class="cls-5" d="M95.19,67.21c2.21,1.44,4.71,1.44,7-1.22a4.88,4.88,0,0,1,2.67-1.64c.8-.08.76-.84,1.37-1-.38-.12-.53-.57-1.11-.51,1.43-.5,1-1.64,1.72-2.19-.58.21-1.47-.65-2.29.44a1.4,1.4,0,0,0-.28-1.32c.08.58-1.12.69-1.35,2.14-.13.81-.58.76-.65-.5a20.24,20.24,0,0,0-1-4.76c-.54-1.29-.66-3.07.06-3.33a1.41,1.41,0,0,0-.44-.47c-.89-.58-2.44-.34-2.75.69-1,2.58,1.79,4.07,1.56,6.89-.41-2.09-3.8-2.63-3.76-4.69-1.11.5-1,1.41-.53,2.14-.69-1.07-2.25.68-3.59-.76-.15,1.9,1.53,2.63,2.9,2.7a1.81,1.81,0,0,0,1.14,2.59c0-2.14,4.41-1.26,4.45,2.39C100.33,67.93,97,68.19,95.19,67.21Z"/><path class="cls-5" d="M101.32,70.21c5.33,1.14,3.43,5.37,1.87,5.33a2.1,2.1,0,0,1-2-1.58,1.25,1.25,0,0,0,0,2.29,2.86,2.86,0,0,0-3.46,3,2.14,2.14,0,0,1,2.26-.68,2.57,2.57,0,0,0,2.29-.31c-.42.36.26,1.2-.33,1.85,2-.08,2.88-1.95,2.54-2.76C107.11,75,106.61,71.17,101.32,70.21Z"/><path class="cls-5" d="M97.26,88.3a.65.65,0,0,1,.07,1c-.47.57.24,2-1.21,2.18-.43.07-.75-.2-.89-.69-.39-1.36,1-1.45,1.19-2.09S97,88.12,97.26,88.3Z"/><path class="cls-5" d="M96,90.76c.47.24.87.57.63,2.09-.11.63-.13,2.17.42,2.21-.35.15-1.07.3-1.36-.1-.31.47-1,.3-1.18-.3-.35.26-.8-.23-.78-.63-.31.18-.89-.12-.71-1a1,1,0,0,1-1-.4,4.59,4.59,0,0,0,2.24-1.32A1.43,1.43,0,0,1,96,90.76Z"/><path class="cls-8" d="M95.64,95a3.48,3.48,0,0,0,.16-1.65"/><path class="cls-8" d="M94.46,94.66a2.55,2.55,0,0,0,.81-1.31"/><path class="cls-8" d="M93.67,94a3.83,3.83,0,0,0,1.25-1.64"/><path class="cls-8" d="M93,93a4.23,4.23,0,0,0,1.93-1.45"/><path class="cls-5" d="M89.48,62.68c-.07,3.9,1.56,5.88,3.8,7.16-.83-.5-.47-2.21-1.59-2.77.26,0,.68.36,1.35.21a2.87,2.87,0,0,0-2.1-2,5.63,5.63,0,0,0,1.49-.09C91.78,64.22,90.07,64.69,89.48,62.68Z"/><path class="cls-5" d="M89.08,59a.75.75,0,0,1-.37-.36.66.66,0,0,1-.88-.51c0,.44-.34.42-.52.44a2.32,2.32,0,0,1,1,2.51c-.3.76-1.37.72-2,.23-.08,1.61,2,2.15,2.78.11,0,.34.44.31.55.76C90.19,61.27,89.78,60,89.08,59Z"/><path class="cls-6" d="M85.73,51.23a4.55,4.55,0,0,1-1.35-3.17c0-.84.38-1.76,1.6-1.37-.38,0-.12.76-.52.84a.78.78,0,0,0,.82-.33c.08.27.58.19.61.5.19-.16,0-.9-.3-1.05a1.11,1.11,0,0,0,.23-1,.8.8,0,0,0-.53.68c.09-.3,0-1.06-.56-1.18a1,1,0,0,0,0,1,1.38,1.38,0,0,0-1.39.63,3.7,3.7,0,0,1,.42-1.68c.11-.15-.15-.41-.35,0-.37-.73-1.36-1.11-1.8-.74s-1-.17-1.39.39-1.59.64-1.52,1.24a1.87,1.87,0,0,1-.23,1.12c-.44.5.21.86.32,1.3-.07-1.45,2.23-4.27,4.54-3.16a5,5,0,0,0-.46,2,5,5,0,0,0,1.35,4.19Z"/><path class="cls-14" d="M86.41,46.7c0-.34.58-.79,1.38-.78,1,0,1.7.89,2.47.8s.39.35.23.46a.45.45,0,0,0-.2.5c0,.21,0,.34-.35.15-.69-.43-1.37.17-2.28-.16S86.43,47.21,86.41,46.7Z"/><path class="cls-13" d="M82.49,55.69A5.86,5.86,0,0,0,80,52.87l0-.64A8.67,8.67,0,0,0,81.64,51c2.85,1.37,6.74-.57,8.53-2.59l.68.42-.34.46-.36-.19a21.88,21.88,0,0,1-2.57,2.39,9.27,9.27,0,0,0,1.83.27c1.59-1.14,2.85-2.17,3.46-2.25l.51.69-.46.32-.36-.21a18.52,18.52,0,0,0-4.42,6.55C87.08,56.58,83.27,56.73,82.49,55.69Z"/><path class="cls-8" d="M87.58,51.44a2.19,2.19,0,0,1-.59-.21,3.5,3.5,0,0,1-2,.58"/><path class="cls-8" d="M82.64,55.27c-.25-1.42.15-3,.88-3.47a5.68,5.68,0,0,0,5.88-.09"/><path class="cls-8" d="M82.64,54.53a41.35,41.35,0,0,1,4.51.26c.65.1,1.73.36,1.58.69"/><path class="cls-8" d="M83.21,54.33l.35-.35-.35-.35-.35.34Z"/><path class="cls-6" d="M84,47.24c-.44-.61-1.64-.8-1.9,0a1.56,1.56,0,0,1-.57.91c-.29.17-.22.69-.1.92.3.55,0,1.08.63,1.44,0-.44.64-.89,1.2-1s1.39-.61,1.5-1.17S85.1,47.35,84,47.24Z"/><path class="cls-13" d="M81.29,52.72h.15v1l.09,0,.9-.51.07.13-.9.52a.34.34,0,0,1,0,.1l.89.52-.07.13-.91-.51a.19.19,0,0,1-.09,0v1h-.15v-1l-.09,0-.9.52-.07-.13.9-.52a.38.38,0,0,1,0-.1l-.89-.52.07-.14.9.52.09-.05v-1Z"/><path class="cls-13" d="M82.65,55.26a1.8,1.8,0,1,1,.15-2.36,4.13,4.13,0,0,0-.21,1,1.23,1.23,0,0,0-2.46.13,1.23,1.23,0,0,0,1.23,1.23,1.25,1.25,0,0,0,1.2-.93A4.85,4.85,0,0,0,82.65,55.26Z"/><path class="cls-6" d="M80.61,57a1.26,1.26,0,0,1-.31-.76,1,1,0,0,1,.65.25,3.6,3.6,0,0,1-.06-.8,1.63,1.63,0,0,1,.8.61,2.9,2.9,0,0,1,0-1,1.73,1.73,0,0,1,.68.74,3.35,3.35,0,0,1,.27-1.16,4.33,4.33,0,0,1,.61.55,1,1,0,0,1,.42-.76,2.17,2.17,0,0,1,.49,1.12c.17-.05.4-.34.5-.49a1.06,1.06,0,0,1,.13.74,1.63,1.63,0,0,0,.51-.69,1.47,1.47,0,0,1,.51.71,6,6,0,0,0-.09-.94,1.11,1.11,0,0,1,.57.71,2.37,2.37,0,0,1,.4-.86,2.14,2.14,0,0,1,.28,1c.1-.19.25-.53.4-.61a1.78,1.78,0,0,1,.08.92,1.9,1.9,0,0,1,.53-.5,1.51,1.51,0,0,1,0,.52,2.29,2.29,0,0,0,.55-.88,1.36,1.36,0,0,1,.56.82,2,2,0,0,0,.68-.61,2.93,2.93,0,0,1,0,.78,2.46,2.46,0,0,0,.28-.44,1.77,1.77,0,0,1-.06.9,1,1,0,0,1,.57-.25,3.36,3.36,0,0,1-.42,1.31C88.28,57.38,84.45,57.19,80.61,57Z"/><path class="cls-10" d="M87,46.9c0-.14.3-.46.86-.45s1.3.49,1.84.46.27.14.16.19-.18.11-.15.2,0,.14-.24.06c-.48-.17-1,.07-1.6-.06S87,47.11,87,46.9Z"/><path class="cls-5" d="M81.2,58.13c-.58.68-1.14.57-1.26.13s.31-.65.15-1,.25-.56.44-.38.8-.38,1.07.19.47,1,.32,1.2S81.31,58.35,81.2,58.13Z"/><path class="cls-5" d="M83.65,57.1c-.11-.26.49-.74.79-.39s.78-.37,1,.17.35.82.49,1.13-.73.46-1,.2c0,.18-.74.32-1-.19C83.92,57.75,83.8,57.43,83.65,57.1Z"/><path class="cls-5" d="M87.61,57.41c-.14-.26.55-.64.92-.16a.49.49,0,0,1,.82.34c.05.59.07.93.09,1.16s-.41.44-.73-.14a.67.67,0,0,1-.88-.53A2.46,2.46,0,0,0,87.61,57.41Z"/><path class="cls-6" d="M81.57,57c-.09-.19.48-.57.87-.28s.93-.25,1.16.26c.47,1,.5,1.12.36,1.32s-.75.12-.91-.15c0,.19-.55.16-.83,0S81.69,57.37,81.57,57Z"/><path class="cls-6" d="M85.57,57.08c-.13-.3.76-.56,1.16,0,.2-.18.63-.19.88.37s.28.88.11,1-.59.18-.75-.08A.84.84,0,0,1,86,58,9.72,9.72,0,0,0,85.57,57.08Z"/><path class="cls-6" d="M89.36,57.64c0-.27.47-.39.65,0s.76,0,.81.69a1.66,1.66,0,0,1-.25.83c-.18.22-1.06,0-1.12-.49S89.37,57.91,89.36,57.64Z"/><path class="cls-8" d="M81.2,58.13c-.21-.29-.5-.75-.86-.25"/><path class="cls-8" d="M83.05,58.17a2.3,2.3,0,0,1-.34-.64"/><path class="cls-8" d="M85,58.21a1.38,1.38,0,0,1-.44-.48"/><path class="cls-8" d="M84.81,57.21a1.06,1.06,0,0,1,.67.49c.1.15.32.4.49.43"/><path class="cls-8" d="M87,58.35a2,2,0,0,1-.25-.47"/><path class="cls-8" d="M86.73,57a2.09,2.09,0,0,1,.26.45"/><path class="cls-8" d="M88.7,58.6a1.51,1.51,0,0,0-.59-.65"/><path class="cls-8" d="M88.63,57.55c0,.57.77.6.8,1"/><path class="cls-8" d="M90,57.64a1,1,0,0,1,.11.52"/><g class="cls-15"><path class="cls-16" d="M15.55,22.32,64.24,46.66m0-24.34L15.55,46.66"/><g class="cls-17"><path class="cls-18" d="M15.55,22.32,64.24,46.66m0-24.34L15.55,46.66"/></g><path class="cls-19" d="M39.9,22.32V54.77M15.55,34.49h56.8"/><path class="cls-20" d="M39.9,22.32V54.77M15.55,34.49h56.8"/></g></g></g></svg>