<?xml version="1.0" encoding="utf-8"?>
<!-- Generator: Adobe Illustrator 25.2.3, SVG Export Plug-In . SVG Version: 6.00 Build 0)  -->
<svg version="1.1"
	 id="svg2178" inkscape:output_extension="org.inkscape.output.svg.inkscape" xmlns:cc="http://creativecommons.org/ns#" xmlns:dc="http://purl.org/dc/elements/1.1/" xmlns:inkscape="http://www.inkscape.org/namespaces/inkscape" xmlns:rdf="http://www.w3.org/1999/02/22-rdf-syntax-ns#" xmlns:sodipodi="http://sodipodi.sourceforge.net/DTD/sodipodi-0.dtd" xmlns:svg="http://www.w3.org/2000/svg"
	 xmlns="http://www.w3.org/2000/svg" xmlns:xlink="http://www.w3.org/1999/xlink" x="0px" y="0px" viewBox="0 0 624.4 630.9"
	 style="enable-background:new 0 0 624.4 630.9;" xml:space="preserve">
<style type="text/css">
	.st0{fill:#037C37;}
	.st1{fill:#FECC08;stroke:#E0A90E;stroke-width:2;stroke-miterlimit:10;}
</style>
<defs>
	
		<inkscape:perspective  id="perspective11" inkscape:persp3d-origin="250 : 166.66667 : 1" inkscape:vp_x="0 : 250 : 1" inkscape:vp_y="0 : 1000 : 0" inkscape:vp_z="500 : 250 : 1" sodipodi:type="inkscape:persp3d">
		</inkscape:perspective>
	
		<inkscape:perspective  id="perspective3147" inkscape:persp3d-origin="0.5 : 0.33333333 : 1" inkscape:vp_x="0 : 0.5 : 1" inkscape:vp_y="0 : 1000 : 0" inkscape:vp_z="1 : 0.5 : 1" sodipodi:type="inkscape:persp3d">
		</inkscape:perspective>
</defs>
<sodipodi:namedview  bordercolor="#666666" borderopacity="1.0" fit-margin-bottom="87" fit-margin-left="110" fit-margin-right="110" fit-margin-top="85" gridtolerance="10.0" guidetolerance="10.0" height="500px" id="base" inkscape:current-layer="svg2178" inkscape:cx="297.5922" inkscape:cy="317.38272" inkscape:pageopacity="0.0" inkscape:pageshadow="2" inkscape:window-height="740" inkscape:window-maximized="1" inkscape:window-width="1292" inkscape:window-x="66" inkscape:window-y="-8" inkscape:zoom="0.75" objecttolerance="10.0" pagecolor="#ffffff" showgrid="false" width="500px">
	</sodipodi:namedview>
<rect id="field" class="st0" width="624.4" height="630.9"/>
<g>
	<g>
		<path class="st1" d="M448.4,382.6c-72.3,5.4-180.5,105.3-190.7,115.9c0,0-4.9,4.9-5.5,3.1c-1.6-4.8-3.1-10.1-5.6-15.7
			c-4-8.9-14.7-14.2-22.2-11.7c-8.6,3-12.6,13.7-8.9,23.4c3.7,8.9,9.3,10.6,19.7,6.7c4.2-1.2,8.4,2.8,7.7,7.2c0,0-5.2,5.1-9.6,8.7
			c-8.9,7.5-11.7,11.1-15.7,5.9c-4.3-3.6-9.6-4.5-14.7-0.9c-10.4,7.2-10.4,29.9,4.6,34.1c7,0.9,9.6,1.1,14.7-1.7
			c10.1-7.2,16.6-14,27.7-22.6c5.4-5,4.9-3,7.4,0.9c3.7,6.4,9.6,11.1,16.9,14.2c8.3,3.6,16,2.5,21.9-3c5.3-5,6.4-13.7,2.7-20.9
			c-2.7-5.3-6.4-8.7-13.3-8.1c-6.1,0.6-10.4,3-11.4,9.5c-0.3,2-0.6,4.5-3.1,4.2c-2.7,0-6-5.9-6.5-9.6c1.6-5.6,38.4-38.7,41.9-41.8
			c0,0,76.4-65.4,128.3-81.7c19-5.3,35.6-11.3,55.6-13c3.1-0.3,6.4-0.6,9.6-0.9l0,0C464.9,379.8,448.4,382.6,448.4,382.6z"/>
		<path class="st1" d="M124.4,384.9L124.4,384.9c3.1,0.3,6.4,0.6,9.6,0.9c20,1.7,36.6,7.7,55.6,13c52,16.3,128.4,81.7,128.4,81.7
			c3.4,3,40.3,36.2,41.9,41.8c-0.6,3.7-3.8,9.6-6.5,9.6c-2.5,0.3-2.8-2.2-3.1-4.2c-1-6.4-5.3-8.9-11.4-9.5
			c-6.8-0.6-10.5,2.8-13.3,8.1c-3.7,7.2-2.5,15.9,2.7,20.9c5.9,5.6,13.6,6.6,21.9,3c7.3-3.1,13.2-7.8,16.9-14.2
			c2.5-3.9,2-5.9,7.4-0.9c11.1,8.7,17.6,15.4,27.7,22.6c5.2,2.7,7.7,2.5,14.7,1.7c15-4.2,15-26.8,4.6-34.1
			c-5.2-3.6-10.4-2.7-14.7,0.9c-4,5.3-6.8,1.7-15.7-5.9c-4.4-3.6-9.6-8.7-9.6-8.7c-0.7-4.5,3.5-8.5,7.7-7.2
			c10.4,3.9,16,2.1,19.7-6.7c3.7-9.8-0.3-20.4-8.9-23.4c-7.4-2.5-18.2,2.8-22.2,11.7c-2.4,5.6-4,10.9-5.6,15.7
			c-0.6,1.8-5.5-3.1-5.5-3.1C356.6,488,248.3,388,176,382.7C176.1,382.6,161,380.2,124.4,384.9z"/>
	</g>
	<g>
		<path class="st1" d="M239.3,150c-8,12.6-10.7,26-6.7,40.7c3.7-6.4,10.1-10.8,12.6-18.2c4.6-14,14.4-25.1,25.9-34.8
			c1.3-1.1,2.7-2.5,4.6-0.9c1.3,1.4,0.3,2.5-0.6,3.6c-3.4,3.9-6.4,7.8-9.9,11.7c-14.1,17-25.2,39.3-8.9,60.8c0,0,3.1-2.2,4.3-4.2
			l7.4-10.3c0-1.1,1.6-24.3,1.9-26c1.6-10.1,8.3-17.6,14.7-25.7c4,4.5,4.3,7.5,0.6,11.7c-7,8.4-7,18.9-6.7,28.5
			c0.3,8.4,1.6,31.5,12,45.2c3.7-11.1,6.4-32.9,10.7-42.6c4,0.3,3.7,17.3,4,23.1c0.3,6.7,0.3,13.7,0.6,20.4c2.4,46.8-2.5,93.4-4,140
			c-0.3,7.5-6.1,14.2-9.5,20.7c-1.6,2.8-2.7,5,2.7,5c5.9,0,11.7,0,17.6,0l0,0c5.9,0,11.7,0,17.6,0c5.6,0,4-2.2,2.7-5
			c-3.4-6.7-9-13.6-9.3-21.2c-2.3-46.4-5.5-92.7-4.2-139.5c0.3-6.7,0.6-13.7,0.6-20.4c0.3-5.9-0.6-23.4,3.4-23.7
			c4.3,9.8,7.7,32.1,11,42.9c10.4-13.7,11.7-36.8,12-45.2c0.3-9.8,0.3-20.4-6.7-28.5c-3.7-4.5-3.4-7.5,0.6-11.7
			c6.4,8.1,13.3,15.6,14.7,25.7c0.3,1.7,1.9,24.8,1.9,26l7.4,10.3c1.3,2,4.3,4.2,4.3,4.2c16.3-21.5,5.3-43.5-8.9-60.8
			c-3.4-3.9-6.4-7.8-9.9-11.7c-0.9-1.1-1.9-2.5-0.6-3.6c1.9-1.7,3.4-0.3,4.6,0.9c11.7,9.8,21.2,20.9,25.9,34.8
			c2.4,7.5,9.3,11.7,12.6,18.2c3.7-14.5,0.9-27.9-6.7-40.7c-7.7-12.6-21.6-19.2-35.3-28.5c19-3,32.3,1.1,41.6,17
			c0.9-23.1-23-38.3-47-31.8c-2.4,0.6-5.3,3.9-7,0.9c-1.8-3,1.3-5.6,3.7-7.5c5.3-3.6,11.4-4.8,17.6-5.6c4.3-0.6,9.5,0.9,11.6,6.7
			c-0.1-7.8-1.5-12.7-11-16.6c-12.5-4.8-24.4-1.9-38.3,13.3c-2.4-6.7-6.1-20.2-8.5-26.6c-2.4,6.7-6.2,19.9-8.6,26.6
			c-13.9-14.7-24.9-17.3-38.2-13.3c-8.1,3.5-12.5,8.5-11.2,16.9c1.9-5.9,7.5-7.3,11.8-7c6.1,0.9,12.6,2,17.6,5.6
			c2.7,2,5.6,4.5,3.7,7.5c-1.9,2.8-4.9-0.3-7-0.9c-24-6.4-48,8.4-47,31.8c9.3-15.9,22.4-19.8,41.6-17
			C260.7,130.7,246.9,137.5,239.3,150z"/>
		<path class="st1" d="M347.5,391.5l-0.8-9.7l-4.6,13.7l-1.5-10.7l-4.6,10.7l-1.9-8.3l-5,7.9l-0.1-12.5l-9,12.9l-3.7-5.8l-4.2,5.8
			l-3.9-9l-4.1,9l-8.6-13.5l-0.4,13.1l-5-7.9l-2,8.4l-3.8-10.7l-2,10.6l-5-13.5l-0.3,9.5l-7.8-12.9c3.7,8.8,3.7,28.9,3.7,28.9
			l78.4-0.3c0,0-0.8-14.3,3.9-28.6L347.5,391.5z"/>
	</g>
</g>
</svg>
