<svg xmlns="http://www.w3.org/2000/svg" width="60" height="60" viewBox="0 0 60 60">
  <g id="Group_15729" data-name="Group 15729" transform="translate(-1136 -1500)">
    <path id="Path_7950" data-name="Path 7950" d="M30,0A30,30,0,1,1,0,30,30,30,0,0,1,30,0Z" transform="translate(1136 1500)" fill="#84b0d5"/>
    <g id="Group_15708" data-name="Group 15708" transform="translate(3 5)">
      <rect id="Rectangle_12792" data-name="Rectangle 12792" width="23.333" height="24.889" transform="translate(1151.778 1512.556)" fill="#e6d8ac"/>
      <rect id="Rectangle_12793" data-name="Rectangle 12793" width="6.222" height="27.222" transform="translate(1145.555 1511.778)" fill="#e6d8ac"/>
      <rect id="Rectangle_12794" data-name="Rectangle 12794" width="6.222" height="27.222" transform="translate(1175.111 1511.778)" fill="#e6d8ac"/>
      <rect id="Rectangle_12795" data-name="Rectangle 12795" width="1.556" height="27.222" transform="translate(1175.111 1511.778)" fill="#d9c687"/>
      <rect id="Rectangle_12796" data-name="Rectangle 12796" width="1.556" height="27.222" transform="translate(1150.222 1511.778)" fill="#d9c687"/>
      <rect id="Rectangle_12797" data-name="Rectangle 12797" width="9.333" height="1.556" rx="0.778" transform="translate(1144 1510.222)" fill="#895624"/>
      <rect id="Rectangle_12798" data-name="Rectangle 12798" width="9.333" height="1.556" rx="0.778" transform="translate(1173.556 1510.222)" fill="#895624"/>
      <rect id="Rectangle_12799" data-name="Rectangle 12799" width="9.333" height="1.556" rx="0.778" transform="translate(1144 1538.222)" fill="#895624"/>
      <rect id="Rectangle_12800" data-name="Rectangle 12800" width="9.333" height="1.556" rx="0.778" transform="translate(1173.556 1538.222)" fill="#895624"/>
      <rect id="Rectangle_12801" data-name="Rectangle 12801" width="3.111" height="7.778" rx="1.556" transform="translate(1176.667 1504)" fill="#895624"/>
      <rect id="Rectangle_12802" data-name="Rectangle 12802" width="3.111" height="7.778" rx="1.556" transform="translate(1147.111 1504)" fill="#895624"/>
      <rect id="Rectangle_12803" data-name="Rectangle 12803" width="3.111" height="7.778" rx="1.556" transform="translate(1176.667 1538.222)" fill="#895624"/>
      <rect id="Rectangle_12804" data-name="Rectangle 12804" width="3.111" height="7.778" rx="1.556" transform="translate(1147.111 1538.222)" fill="#895624"/>
      <rect id="Rectangle_12805" data-name="Rectangle 12805" width="7.778" height="1.556" transform="translate(1154.889 1516.445)" fill="#967d64"/>
      <rect id="Rectangle_12806" data-name="Rectangle 12806" width="7.778" height="1.556" transform="translate(1164.222 1516.445)" fill="#967d64"/>
      <rect id="Rectangle_12807" data-name="Rectangle 12807" width="7.778" height="1.556" transform="translate(1154.889 1519.556)" fill="#967d64"/>
      <rect id="Rectangle_12808" data-name="Rectangle 12808" width="7.778" height="1.556" transform="translate(1164.222 1519.556)" fill="#967d64"/>
      <rect id="Rectangle_12809" data-name="Rectangle 12809" width="7.778" height="1.556" transform="translate(1154.889 1522.667)" fill="#967d64"/>
      <rect id="Rectangle_12810" data-name="Rectangle 12810" width="7.778" height="1.556" transform="translate(1164.222 1522.667)" fill="#967d64"/>
      <rect id="Rectangle_12811" data-name="Rectangle 12811" width="7.778" height="1.556" transform="translate(1154.889 1525.778)" fill="#967d64"/>
      <rect id="Rectangle_12812" data-name="Rectangle 12812" width="7.778" height="1.556" transform="translate(1164.222 1525.778)" fill="#967d64"/>
      <rect id="Rectangle_12813" data-name="Rectangle 12813" width="7.778" height="1.556" transform="translate(1154.889 1528.889)" fill="#967d64"/>
      <rect id="Rectangle_12814" data-name="Rectangle 12814" width="7.778" height="1.556" transform="translate(1164.222 1528.889)" fill="#967d64"/>
      <rect id="Rectangle_12815" data-name="Rectangle 12815" width="7.778" height="1.556" transform="translate(1154.889 1532)" fill="#967d64"/>
      <rect id="Rectangle_12816" data-name="Rectangle 12816" width="7.778" height="1.556" transform="translate(1164.222 1532)" fill="#967d64"/>
    </g>
  </g>
</svg>
